<svg width="348" height="44" viewBox="0 0 348 44" fill="none" xmlns="http://www.w3.org/2000/svg">
    <g clip-path="url(#clip0_8_205)">
        <path d="M47.2898 10.5594H12.9167V35.7474H47.2898V10.5594Z" fill="#FFC443"/>
        <path d="M32.9018 23.1509C32.9018 24.6259 31.6972 25.8238 30.2108 25.8238C28.7243 25.8238 27.5198 24.6259 27.5198 23.1509C27.5198 21.6758 28.7243 20.483 30.2108 20.483C31.6972 20.483 32.9018 21.6758 32.9018 23.1509Z"
              fill="#24284C"/>
        <path d="M60.2292 18.9212L41.0437 0.167638C40.813 -0.0587071 40.4414 -0.0561639 40.2108 0.170181L33.8241 6.50785C33.4525 6.87916 32.8169 6.61466 32.8169 6.09331V2.43363C32.8169 2.11065 32.553 1.8487 32.2275 1.8487H27.8501C27.5246 1.8487 27.2607 2.11065 27.2607 2.43363V6.05516C27.2607 6.5816 26.6123 6.84101 26.2432 6.46207L20.1667 0.190527C19.936 -0.045991 19.5567 -0.0485342 19.3209 0.182897L0.171273 19.234C-0.0516958 19.4553 -0.0593844 19.8114 0.153333 20.0428L1.38094 21.3831C1.59878 21.6221 1.97296 21.6425 2.21387 21.4237L3.39278 20.3658C3.77209 20.025 4.37948 20.292 4.37948 20.8007V38.6158C4.37948 38.9413 4.64346 39.2033 4.96894 39.2033H55.4521C55.7776 39.2033 56.0415 38.9413 56.0415 38.6158V20.6379C56.0415 20.1191 56.672 19.8571 57.0462 20.2183L58.0226 21.1618C58.2558 21.3881 58.6275 21.3805 58.8581 21.1491L60.2369 19.7478C60.465 19.5163 60.4599 19.1476 60.2292 18.9187V18.9212ZM37.0354 27.764C36.4998 27.764 35.8949 27.6546 35.2901 27.4384C34.8262 27.268 34.3649 27.7258 34.5315 28.1912C34.7519 28.7863 34.8595 29.3891 34.8595 29.9181C34.8595 32.9394 33.0886 34.2847 30.2105 34.2847C27.3324 34.2847 25.5615 32.9394 25.5615 29.9181C25.5615 29.3865 25.6717 28.7863 25.887 28.1912C26.0587 27.7284 25.5974 27.2731 25.1284 27.4384C24.5287 27.6546 23.9213 27.764 23.3882 27.764C20.3435 27.764 18.9903 26.0066 18.9903 23.148C18.9903 20.2895 20.3435 18.5347 23.3882 18.5347C23.9238 18.5347 24.5287 18.6466 25.1335 18.8627C25.5974 19.028 26.0587 18.5703 25.8921 18.11C25.6743 17.5123 25.5641 16.9096 25.5641 16.378C25.5641 13.3618 27.335 12.0139 30.2131 12.0139C33.0912 12.0139 34.8621 13.3618 34.8621 16.378C34.8621 16.9096 34.7545 17.5123 34.5341 18.11C34.3675 18.5703 34.8288 19.028 35.2927 18.8627C35.8949 18.6466 36.5023 18.5347 37.038 18.5347C40.0826 18.5347 41.4358 20.292 41.4358 23.148C41.4358 26.0041 40.0826 27.764 37.038 27.764H37.0354Z"
              fill="#24284C"/>
        <path d="M78.7027 9.58794H87.4779V18.5527H82.3701L82.3189 15.8035C81.6525 17.6372 80.3173 18.8096 77.9313 18.8096C73.2105 18.8096 69.3098 15.422 69.3098 9.53962C69.3098 3.65718 73.7769 0.343384 78.9846 0.343384C83.2953 0.343384 86.8372 2.1516 87.3754 5.69174H82.4239C82.142 2.66024 81.0374 1.23605 78.9846 1.23605C76.2654 1.23605 75.1608 3.55291 75.1608 9.53707C75.1608 15.5212 76.3679 17.6601 78.6514 17.6601C80.9349 17.6601 82.1164 15.4704 82.1164 11.9811V10.6307H78.7027V9.58539V9.58794Z"
              fill="#24284C"/>
        <path d="M89.8921 0.724854H95.2561V4.13784H89.8921V0.724854ZM89.9177 5.56203H95.2305V18.5502H89.9177V5.56457V5.56203Z"
              fill="#24284C"/>
        <path d="M102.952 18.5502H97.6396V5.56462H102.773L102.824 9.0539C103.004 8.31637 103.286 7.65259 103.644 7.09309C104.336 6.0224 105.39 5.46289 106.543 5.46289C106.671 5.46289 106.825 5.46289 107.132 5.51375V9.18106C106.107 9.00303 105.31 8.82501 104.644 8.82501C103.565 8.82501 102.95 9.25735 102.95 10.7604V18.5528L102.952 18.5502Z"
              fill="#24284C"/>
        <path d="M116.477 16.6402C115.81 18.0161 114.347 18.7536 112.576 18.7536C110.139 18.7536 107.932 17.6321 107.932 14.9591C107.932 12.4388 109.959 11.4953 114.834 10.8341L116.272 10.6306V8.97498C116.272 6.91244 115.836 6.07318 114.706 6.07318C113.576 6.07318 112.986 7.19474 112.935 9.56246H108.598C108.855 7.09301 111.138 5.28479 114.706 5.28479C118.888 5.28479 121.505 6.81326 121.479 10.5314L121.454 16.1341C121.454 16.6427 121.505 17.2048 121.556 18.5527H116.528L116.477 16.6427V16.6402ZM114.654 17.0471C115.5 17.0471 116.272 16.1316 116.272 14.069V11.5996C114.475 11.7013 113.165 12.388 113.165 14.4759C113.165 16.2079 113.806 17.0471 114.654 17.0471Z"
              fill="#24284C"/>
        <path d="M129.053 18.5502H123.74V5.56462H128.873L128.924 9.0539C129.104 8.31637 129.386 7.65259 129.745 7.09309C130.436 6.0224 131.49 5.46289 132.643 5.46289C132.771 5.46289 132.925 5.46289 133.233 5.51375V9.18106C132.207 9.00303 131.41 8.82501 130.744 8.82501C129.665 8.82501 129.05 9.25735 129.05 10.7604V18.5528L129.053 18.5502Z"
              fill="#24284C"/>
        <path d="M143.474 16.2079C142.859 17.8889 141.677 18.7791 139.675 18.7791C136.621 18.7791 133.927 16.5385 133.927 11.9556C133.927 7.37279 136.646 5.28482 139.675 5.28482C141.446 5.28482 142.602 5.92062 143.269 7.2202V0.724854H148.607V18.5502H143.499L143.474 16.2079ZM143.371 11.9556C143.371 8.36464 142.474 6.81074 141.344 6.81074C140.086 6.81074 139.522 8.08489 139.522 11.9556C139.522 15.8264 140.086 17.2531 141.344 17.2531C142.449 17.2531 143.371 15.4195 143.371 11.9556V11.9556Z"
              fill="#24284C"/>
        <path d="M169.305 18.5502H156.062V0.724854H169.151V1.77011H161.58V8.90126H168.38V9.94652H161.58V17.51H169.305V18.5553V18.5502Z"
              fill="#24284C"/>
        <path d="M170.279 14.9871H174.538C174.589 17.1259 175.486 18.0186 176.745 18.0186C178.003 18.0186 178.9 17.3319 178.9 16.3375C178.926 15.4474 178.208 14.7836 176.463 14.3767L175.025 14.0461C172.229 13.4103 170.663 12.2633 170.663 9.94647C170.663 7.1464 173.536 5.31274 176.77 5.31274C180.005 5.31274 182.519 6.4343 182.878 8.70029H178.695C178.669 6.86664 177.926 6.12911 176.77 6.12911C175.691 6.12911 174.82 6.76491 174.82 7.75931C174.82 8.67486 175.409 9.18605 177.027 9.5421L178.516 9.87271C181.622 10.5848 183.159 11.8081 183.159 14.0995C183.159 17.1565 180.053 18.8095 176.745 18.8095C172.895 18.8095 170.586 17.4845 170.279 14.9896V14.9871Z"
              fill="#24284C"/>
        <path d="M185.625 15.0635V6.5056H183.957V5.56461H185.625V3.88355L190.912 1.46497H190.963V5.56461H193.452V6.5056H190.963V16.1825C190.963 17.3549 191.271 17.6092 192.324 17.6092H193.454V18.5273C192.35 18.5782 191.145 18.5782 189.913 18.5782C186.835 18.5782 185.628 17.917 185.628 15.0635H185.625Z"
              fill="#24284C"/>
        <path d="M202.922 16.6402C202.255 18.0161 200.792 18.7536 199.021 18.7536C196.584 18.7536 194.377 17.6321 194.377 14.9591C194.377 12.4388 196.404 11.4953 201.279 10.8341L202.717 10.6306V8.97498C202.717 6.91244 202.281 6.07318 201.151 6.07318C200.021 6.07318 199.431 7.19474 199.38 9.56246H195.044C195.3 7.09301 197.583 5.28479 201.151 5.28479C205.333 5.28479 207.95 6.81326 207.924 10.5314L207.899 16.1341C207.899 16.6427 207.95 17.2048 208.001 18.5527H202.973L202.922 16.6427V16.6402ZM201.1 17.0471C201.945 17.0471 202.717 16.1316 202.717 14.069V11.5996C200.92 11.7013 199.611 12.388 199.611 14.4759C199.611 16.2079 200.251 17.0471 201.1 17.0471V17.0471Z"
              fill="#24284C"/>
        <path d="M210.595 15.0635V6.5056H208.927V5.56461H210.595V3.88355L215.882 1.46497H215.933V5.56461H218.422V6.5056H215.933V16.1825C215.933 17.3549 216.241 17.6092 217.294 17.6092H218.424V18.5273C217.32 18.5782 216.115 18.5782 214.883 18.5782C211.805 18.5782 210.597 17.917 210.597 15.0635H210.595Z"
              fill="#24284C"/>
        <path d="M226.221 18.807C221.961 18.807 218.624 16.2867 218.624 11.9556C218.624 7.62454 222.064 5.28479 225.759 5.28479C229.455 5.28479 232.712 7.57622 232.712 11.5996V12.0065H224.168V12.0319C224.168 16.0807 225.349 17.5074 227.505 17.5074C229.327 17.5074 230.995 16.335 231.38 14.5293H232.664C232.1 17.1514 229.686 18.807 226.223 18.807H226.221ZM224.168 11.0655H227.376C227.376 7.19474 226.941 6.07573 225.759 6.07573C224.578 6.07573 224.193 7.27358 224.168 11.0655Z"
              fill="#24284C"/>
        <path d="M71.66 22.7617V38.9314H70.4272V21.1061H77.0727L84.054 33.3033V21.1061H85.2867V38.9314H80.9503L71.66 22.7617V22.7617Z"
              fill="#24284C"/>
        <path d="M94.4745 39.1882C90.215 39.1882 86.8782 36.6679 86.8782 32.3368C86.8782 28.0058 90.3175 25.666 94.0132 25.666C97.7088 25.666 100.966 27.9574 100.966 31.9808V32.3877H92.4216V32.4131C92.4216 36.4619 93.6031 37.8887 95.7585 37.8887C97.5807 37.8887 99.2491 36.7162 99.6335 34.9106H100.918C100.354 37.5326 97.9395 39.1882 94.477 39.1882H94.4745ZM92.4216 31.4467H95.6303C95.6303 27.576 95.1946 26.457 94.0132 26.457C92.8317 26.457 92.4473 27.6548 92.4216 31.4467Z"
              fill="#24284C"/>
        <path d="M102.43 21.1061H107.794V24.5191H102.43V21.1061ZM102.455 25.9433H107.768V38.9314H102.455V25.9433Z"
              fill="#24284C"/>
        <path d="M115.979 44C112.335 44 109.411 43.5422 109.411 41.4797C109.411 40.231 110.951 39.5443 113.03 39.4426C111.131 39.1374 110.234 38.2447 110.234 36.9477C110.234 35.3938 111.671 34.4528 113.724 34.0713C111.441 33.4864 110.003 32.0342 110.003 30.0225C110.003 27.0673 112.722 25.7449 116.238 25.7449H116.469C117.932 25.7703 118.471 25.9483 119.883 25.9483H123.476V26.8893H121.782C121.372 26.8893 120.987 26.8385 120.6 26.7876C121.756 27.4997 122.474 28.5704 122.474 30.0225C122.474 32.6446 119.96 34.3511 116.238 34.3511C114.57 34.3511 113.878 34.6817 113.878 35.0123C113.878 35.2666 114.032 35.3938 114.724 35.4192L118.266 35.521C121.551 35.6227 123.501 36.7697 123.501 39.29C123.501 42.7284 119.755 44 115.982 44H115.979ZM115.979 43.2116C118.391 43.2116 119.624 42.5249 119.624 41.2508C119.624 40.2335 118.727 39.646 116.956 39.6206L114.467 39.5697C113.442 39.7478 112.799 40.3836 112.799 41.2508C112.799 42.4741 113.801 43.2116 115.982 43.2116H115.979ZM114.875 30.02C114.875 32.5658 115.208 33.611 116.236 33.611C117.263 33.611 117.622 32.5937 117.622 30.02C117.622 27.4463 117.238 26.4799 116.236 26.4799C115.234 26.4799 114.875 27.4234 114.875 30.02Z"
              fill="#24284C"/>
        <path d="M130.58 38.9314H125.267V21.1061H130.58V26.1493C130.58 26.7088 130.555 27.1665 130.503 27.932C131.093 26.607 132.454 25.6915 134.455 25.6915C137.097 25.6915 139.15 27.1945 139.15 30.7067V38.9314H133.838V29.2545C133.838 27.8532 133.376 27.2683 132.554 27.2683C131.528 27.2683 130.578 28.4407 130.578 31.2916V38.9314H130.58Z"
              fill="#24284C"/>
        <path d="M150.365 39.1628C148.415 39.1628 147.156 38.3236 146.516 36.6934L146.49 38.934H141.382V21.1061H146.695V27.7515C147.361 26.3502 148.569 25.6635 150.365 25.6635C153.366 25.6635 156.062 27.9804 156.062 32.3343C156.062 36.6883 153.318 39.1578 150.365 39.1578V39.1628ZM150.468 32.3394C150.468 28.4687 149.878 27.1945 148.645 27.1945C147.515 27.1945 146.618 28.7993 146.618 32.3394C146.618 35.8796 147.515 37.6369 148.645 37.6369C149.904 37.6369 150.468 36.1847 150.468 32.3394Z"
              fill="#24284C"/>
        <path d="M157.552 32.3369C157.552 27.9829 161.068 25.6406 164.994 25.6406C168.92 25.6406 172.437 27.9321 172.437 32.3369C172.437 36.7417 169.151 39.1883 164.994 39.1883C160.837 39.1883 157.552 36.5917 157.552 32.3369ZM166.842 32.3369C166.842 28.0846 166.432 26.4545 164.994 26.4545C163.556 26.4545 163.146 28.0592 163.146 32.3369C163.146 36.6146 163.556 38.3719 164.994 38.3719C166.432 38.3719 166.842 36.5637 166.842 32.3369V32.3369Z"
              fill="#24284C"/>
        <path d="M179.133 38.9314H173.821V25.9433H178.954L179.005 29.4326C179.185 28.695 179.467 28.0313 179.825 27.4717C180.517 26.4011 181.571 25.8416 182.724 25.8416C182.852 25.8416 183.006 25.8416 183.313 25.8924V29.5597C182.288 29.3817 181.491 29.2037 180.825 29.2037C179.746 29.2037 179.131 29.636 179.131 31.1391V38.9314H179.133Z"
              fill="#24284C"/>
        <path d="M183.88 35.3683H188.139C188.19 37.5072 189.087 38.3998 190.346 38.3998C191.604 38.3998 192.501 37.7132 192.501 36.7188C192.527 35.8286 191.809 35.1649 190.064 34.758L188.626 34.4273C185.83 33.7915 184.264 32.6446 184.264 30.3277C184.264 27.5276 187.137 25.694 190.371 25.694C193.606 25.694 196.12 26.8155 196.479 29.0815H192.296C192.27 27.2479 191.527 26.5103 190.371 26.5103C189.292 26.5103 188.421 27.1461 188.421 28.1405C188.421 29.0561 189.01 29.5673 190.628 29.9233L192.117 30.2539C195.223 30.966 196.761 32.1893 196.761 34.4807C196.761 37.5377 193.654 39.1908 190.346 39.1908C186.496 39.1908 184.187 37.8658 183.88 35.3709V35.3683Z"
              fill="#24284C"/>
        <path d="M210.582 33.7102H204.116L202.396 38.9568H201.164L207.091 21.1315H211.863L218.355 38.9568H212.453L210.58 33.7102H210.582ZM210.223 32.6675L207.22 24.2901L204.475 32.6675H210.223V32.6675Z"
              fill="#24284C"/>
        <path d="M219.075 35.3913H223.335C223.386 37.5301 224.283 38.4228 225.542 38.4228C226.8 38.4228 227.697 37.7361 227.697 36.7417C227.723 35.8516 227.005 35.1878 225.26 34.7809L223.822 34.4503C221.026 33.8145 219.46 32.6675 219.46 30.3506C219.46 27.5506 222.333 25.7169 225.567 25.7169C228.801 25.7169 231.316 26.8385 231.674 29.1045H227.492C227.466 27.2708 226.723 26.5333 225.567 26.5333C224.488 26.5333 223.617 27.1691 223.617 28.1635C223.617 29.079 224.206 29.5902 225.823 29.9463L227.312 30.2769C230.419 30.989 231.956 32.2123 231.956 34.5037C231.956 37.5606 228.85 39.2137 225.542 39.2137C221.692 39.2137 219.383 37.8887 219.075 35.3938V35.3913Z"
              fill="#24284C"/>
        <path d="M232.958 35.3913H237.218C237.269 37.5301 238.166 38.4228 239.425 38.4228C240.683 38.4228 241.58 37.7361 241.58 36.7417C241.606 35.8516 240.888 35.1878 239.143 34.7809L237.705 34.4503C234.909 33.8145 233.343 32.6675 233.343 30.3506C233.343 27.5506 236.216 25.7169 239.45 25.7169C242.685 25.7169 245.199 26.8385 245.558 29.1045H241.375C241.349 27.2708 240.606 26.5333 239.45 26.5333C238.371 26.5333 237.5 27.1691 237.5 28.1635C237.5 29.079 238.089 29.5902 239.707 29.9463L241.196 30.2769C244.302 30.989 245.839 32.2123 245.839 34.5037C245.839 37.5606 242.733 39.2137 239.425 39.2137C235.575 39.2137 233.266 37.8887 232.958 35.3938V35.3913Z"
              fill="#24284C"/>
        <path d="M246.867 32.3623C246.867 28.0083 250.383 25.666 254.309 25.666C258.236 25.666 261.752 27.9574 261.752 32.3623C261.752 36.7671 258.466 39.2137 254.309 39.2137C250.153 39.2137 246.867 36.6171 246.867 32.3623ZM256.157 32.3623C256.157 28.11 255.747 26.4798 254.309 26.4798C252.872 26.4798 252.462 28.0846 252.462 32.3623C252.462 36.6399 252.872 38.3973 254.309 38.3973C255.747 38.3973 256.157 36.5891 256.157 32.3623V32.3623Z"
              fill="#24284C"/>
        <path d="M262.624 32.3623C262.624 27.9829 266.089 25.666 270.143 25.666C273.429 25.666 276.225 27.4742 276.532 30.4778H272.093C272.042 27.932 271.504 26.4798 270.143 26.4798C268.782 26.4798 268.218 28.11 268.218 32.3623C268.218 36.6145 269.348 37.9141 271.427 37.9141C273.505 37.9141 274.815 36.5891 275.251 34.7554H276.535C276.048 37.2249 274.072 39.2366 270.427 39.2366C265.937 39.2366 262.626 36.8434 262.626 32.3597L262.624 32.3623Z"
              fill="#24284C"/>
        <path d="M278.431 21.1315H283.795V24.5445H278.431V21.1315ZM278.457 25.9686H283.77V38.9568H278.457V25.9686V25.9686Z"
              fill="#24284C"/>
        <path d="M293.906 37.0468C293.239 38.4227 291.776 39.1602 290.005 39.1602C287.568 39.1602 285.361 38.0387 285.361 35.3658C285.361 32.8454 287.388 31.9019 292.263 31.2407L293.701 31.0372V29.3816C293.701 27.3191 293.265 26.4798 292.135 26.4798C291.005 26.4798 290.415 27.6014 290.364 29.9691H286.027C286.284 27.4996 288.567 25.6914 292.135 25.6914C296.317 25.6914 298.934 27.2199 298.908 30.938L298.883 36.5407C298.883 37.0494 298.934 37.6114 298.985 38.9593H293.957L293.906 37.0494V37.0468ZM292.083 37.4537C292.929 37.4537 293.701 36.5382 293.701 34.4756V32.0062C291.904 32.1079 290.594 32.7946 290.594 34.8826C290.594 36.6145 291.235 37.4537 292.083 37.4537Z"
              fill="#24284C"/>
        <path d="M301.579 35.4676V26.9122H299.91V25.9712H301.579V24.2902L306.866 21.8716H306.917V25.9712H309.406V26.9122H306.917V36.5891C306.917 37.7615 307.225 38.0159 308.278 38.0159H309.408V38.9339C308.304 38.9848 307.099 38.9848 305.866 38.9848C302.786 38.9848 301.581 38.3236 301.581 35.4701L301.579 35.4676Z"
              fill="#24284C"/>
        <path d="M311.123 21.1315H316.487V24.5445H311.123V21.1315ZM311.149 25.9686H316.461V38.9568H311.149V25.9686V25.9686Z"
              fill="#24284C"/>
        <path d="M317.848 32.3623C317.848 28.0083 321.364 25.666 325.29 25.666C329.217 25.666 332.733 27.9574 332.733 32.3623C332.733 36.7671 329.447 39.2137 325.29 39.2137C321.133 39.2137 317.848 36.6171 317.848 32.3623ZM327.138 32.3623C327.138 28.11 326.728 26.4798 325.29 26.4798C323.853 26.4798 323.443 28.0846 323.443 32.3623C323.443 36.6399 323.853 38.3973 325.29 38.3973C326.728 38.3973 327.138 36.5891 327.138 32.3623V32.3623Z"
              fill="#24284C"/>
        <path d="M339.43 38.9568H334.117V25.9687H339.225L339.25 28.1584C339.789 26.7316 341.201 25.7144 343.305 25.7144C345.947 25.7144 348 27.2174 348 30.7296V38.9543H342.687V29.2774C342.687 27.8761 342.226 27.2911 341.403 27.2911C340.378 27.2911 339.427 28.4636 339.427 31.3145V38.9543L339.43 38.9568Z"
              fill="#24284C"/>
    </g>
    <defs>
        <clipPath id="clip0_8_205">
            <rect width="348" height="44" fill="white"/>
        </clipPath>
    </defs>
</svg>
