<?xml version="1.0" encoding="utf-8"?>
<!-- Generator: Adobe Illustrator 18.0.0, SVG Export Plug-In . SVG Version: 6.00 Build 0)  -->
<!DOCTYPE svg PUBLIC "-//W3C//DTD SVG 1.1//EN" "http://www.w3.org/Graphics/SVG/1.1/DTD/svg11.dtd">
<svg version="1.1" id="Layer_1" xmlns="http://www.w3.org/2000/svg" xmlns:xlink="http://www.w3.org/1999/xlink" x="0px" y="0px"
	 width="333.4px" height="164px" viewBox="0 0 333.4 164" enable-background="new 0 0 333.4 164" xml:space="preserve">
<rect x="169.4" y="0" fill="#266838" width="164" height="164"/>
<path fill="#FFFFFF" d="M283.9,28.3h6.1c0.9,0,1.6,0.7,1.6,1.6v40.6c0,0.9-0.7,1.6-1.6,1.6h-6.1c-0.9,0-1.6-0.7-1.6-1.6V29.9
	C282.4,29,283.1,28.3,283.9,28.3"/>
<path fill="#FFFFFF" d="M224.3,139.4c-3.2,0-6.2-0.6-9.1-1.7c-2.8-1.1-5.3-2.7-7.3-4.7c-2.1-2-3.7-4.4-4.9-7.1
	c-1.2-2.7-1.8-5.7-1.8-8.9c0-3.2,0.6-6.2,1.8-9c1.2-2.7,2.9-5.1,4.9-7.1c2.1-2,4.5-3.6,7.3-4.7c2.8-1.1,5.8-1.7,9.1-1.7
	c4.1,0,7.6,0.7,10.6,2.2c2.2,1.1,4.2,2.7,5.9,4.7c0.9,1.1,0.7,2.7-0.5,3.5l-3.1,2.1c-1,0.7-2.4,0.5-3.3-0.4c-0.8-0.9-1.8-1.7-3-2.4
	c-1.8-1.1-4-1.6-6.6-1.6c-2,0-3.9,0.4-5.6,1.1c-1.7,0.7-3.1,1.7-4.3,3c-1.2,1.3-2.1,2.8-2.8,4.5c-0.7,1.7-1,3.6-1,5.7
	c0,2.1,0.3,4,1,5.7c0.7,1.8,1.6,3.3,2.8,4.6c1.2,1.3,2.6,2.3,4.3,3c1.7,0.7,3.5,1.1,5.6,1.1c2.9,0,5.2-0.6,7-1.8
	c1.2-0.8,2.2-1.7,3.2-2.8c0.8-1,2.3-1.2,3.4-0.5l3.1,2.1c1.2,0.8,1.4,2.5,0.5,3.6c-1.7,2-3.7,3.6-5.9,4.9
	C232.4,138.5,228.7,139.4,224.3,139.4"/>
<path fill="#FFFFFF" d="M287.7,96.5l19.1,40.5c0.4,0.8-0.2,1.8-1.1,1.8h-7c-0.5,0-1-0.3-1.1-0.8l-1.5-3.6c-0.2-0.5-0.6-0.8-1.1-0.8
	h-16.6c-0.5,0-1,0.3-1.1,0.8l-1.5,3.6c-0.2,0.5-0.6,0.8-1.1,0.8h-6.2c-0.9,0-1.5-0.9-1.1-1.7l18.2-40.5
	C285.8,95.6,287.2,95.6,287.7,96.5 M291.7,124.3c-1-2.6-2.9-6.4-4.2-9.8c-0.4-1.1-1.9-1.1-2.3,0c-1.2,3.3-3.1,7.2-4.1,9.8
	c-0.3,0.8,0.3,1.7,1.2,1.7h8.3C291.4,126,292,125.1,291.7,124.3"/>
<path fill="#FFFFFF" d="M122.2,108.6c-14.9,0-26.6-12.3-26.6-28.1c0-33.6,23.3-60.1,24.3-61.2c0.6-0.7,1.4-1,2.3-1
	c0.9,0,1.7,0.4,2.3,1c1,1.1,24.3,27.6,24.3,61.2C148.8,96.2,137.1,108.6,122.2,108.6 M122.2,26.3c-5.8,7.5-20.4,29.1-20.4,54.2
	c0,12.3,9,21.9,20.4,21.9c11.4,0,20.4-9.6,20.4-21.9C142.6,55.3,128,33.8,122.2,26.3"/>
<path fill="#FFFFFF" d="M122.2,141.8c-1.7,0-3.1-1.4-3.1-3.1v-75c0-1.7,1.4-3.1,3.1-3.1c1.7,0,3.1,1.4,3.1,3.1v75
	C125.3,140.4,123.9,141.8,122.2,141.8"/>
<path fill="#FFFFFF" d="M88,51.6L59.9,40.3L31.7,51.6c-3,1.2-3.6-0.7-4-1.7c-0.9-2.2-1.3-2.8,1.7-4l29.3-11.8c0.7-0.3,1.6-0.3,2.3,0
	l29.3,11.8c3,1.2,2.6,1.9,1.7,4C91.2,52,90.4,52.6,88,51.6"/>
<path fill="#FFFFFF" d="M82.2,129.6c-1.7,0-3.1-1.4-3.1-3.1V47.3c0-1.7,1.4-3.1,3.1-3.1c1.7,0,3.1,1.4,3.1,3.1v79.2
	C85.3,128.2,83.9,129.6,82.2,129.6"/>
<path fill="#FFFFFF" d="M37.5,133.6c-1.7,0-3.1-1.4-3.1-3.1V47.3c0-1.7,1.4-3.1,3.1-3.1c1.7,0,3.1,1.4,3.1,3.1v83.1
	C40.6,132.2,39.2,133.6,37.5,133.6"/>
<path fill="#FFFFFF" d="M68.3,93.3c-1.7,0-3.1,0.3-3.1-3.1v-8.9c0-3.4,1.4-3.1,3.1-3.1c1.7,0,3.1-0.3,3.1,3.1v8.9
	C71.4,93.6,70.1,93.3,68.3,93.3"/>
<path fill="#FFFFFF" d="M51.1,93.3c-1.7,0-3.1,0.3-3.1-3.1v-8.9c0-3.4,1.4-3.1,3.1-3.1c1.7,0,3.1-0.3,3.1,3.1v8.9
	C54.2,93.6,52.8,93.3,51.1,93.3"/>
<path fill="#FFFFFF" d="M68.3,70.8c-1.7,0-3.1,0.3-3.1-3.1v-9.4c0-3.4,1.4-3.1,3.1-3.1c1.7,0,3.1-0.3,3.1,3.1v9.4
	C71.4,71.1,70.1,70.8,68.3,70.8"/>
<path fill="#FFFFFF" d="M51.1,70.8c-1.7,0-3.1,0.3-3.1-3.1v-9.4c0-3.4,1.4-3.1,3.1-3.1c1.7,0,3.1-0.3,3.1,3.1v9.4
	C54.2,71.1,52.8,70.8,51.1,70.8"/>
<path fill="#FFFFFF" d="M121.8,89.4c-0.5,0-1.1-0.1-1.6-0.4L108,81.8c-2.7-1.6-2.4-2-1.1-4.2c1.6-2.7,2-2.4,4.2-1.1l10.6,6.3
	l10.6-6.3c2.2-1.3,2.6-1.6,4.2,1.1c1.3,2.2,1.6,2.6-1.1,4.2L123.3,89C122.8,89.3,122.3,89.4,121.8,89.4"/>
<path fill="#FFFFFF" d="M121.8,67.3c-0.6,0-1.1-0.1-1.6-0.4l-7.5-4.5c-2.7-1.6-2.4-2.1-1.1-4.2c1.6-2.7,2.1-2.4,4.2-1.1l5.9,3.6
	l5.9-3.6c2.2-1.3,2.6-1.6,4.2,1.1c1.3,2.2,1.6,2.6-1.1,4.2l-7.5,4.5C122.9,67.1,122.3,67.3,121.8,67.3"/>
<path fill="#FFFFFF" d="M115.4,144.5c-8.7,0-13.2-4.4-17.1-8.2c-3.5-3.5-6.6-6.4-12.8-6.4c-6.2,0-9.3,3-12.8,6.4
	c-3.9,3.8-8.4,8.2-17.1,8.2c-8.7,0-13.2-4.4-17.1-8.2c-3.5-3.5-6.6-6.4-12.8-6.4c-3.4,0-3.1-1.4-3.1-3.1c0-1.7-0.3-3.1,3.1-3.1
	c8.7,0,13.2,4.4,17.1,8.2c3.5,3.5,6.6,6.4,12.8,6.4c6.2,0,9.3-3,12.8-6.4c3.9-3.8,8.4-8.2,17.1-8.2c8.7,0,13.2,4.4,17.1,8.2
	c3.5,3.5,6.6,6.4,12.8,6.4c6.2,0,9.3-3,12.8-6.4c3.9-3.8,8.4-8.2,17.1-8.2c3.4,0,3.1,1.4,3.1,3.1c0,1.7,0.3,3.1-3.1,3.1
	c-6.2,0-9.3,3-12.8,6.4C128.6,140.2,124.2,144.5,115.4,144.5"/>
<path fill="#FFFFFF" d="M66.5,108.3H52c-3.4,0-3.1-1.4-3.1-3.1c0-1.7-0.3-3.1,3.1-3.1h14.5c3.4,0,3.1,1.4,3.1,3.1
	C69.6,107,69.9,108.3,66.5,108.3"/>
<path fill="#FFFFFF" d="M63.8,130.6h-9.3c-1.7,0-3.1-1.4-3.1-3.1V107c0-1.7,1.4-3.1,3.1-3.1c1.7,0,3.1,1.4,3.1,3.1v17.3h3.1V107
	c0-1.7,1.4-3.1,3.1-3.1c1.7,0,3.1,1.4,3.1,3.1v20.4C66.9,129.2,65.5,130.6,63.8,130.6"/>
<path fill="#FFFFFF" d="M115.6,129.1c-8.8,0-13.2-4.3-17.2-8.1c-3.5-3.4-6.6-6.4-12.9-6.4c-1.1,0-1.5,0.1-2.5,0.3
	c-1.7,0.3-3.3-0.8-3.6-2.5c-0.3-1.7,0.8-3.3,2.5-3.6c1.2-0.2,2.1-0.4,3.7-0.4c8.8,0,13.2,4.3,17.2,8.1c3.5,3.4,6.6,6.4,12.9,6.4
	c6.3,0,9.3-3,12.9-6.4c3.9-3.8,8.4-8.1,17.2-8.1c3.4,0,3.1,1.4,3.1,3.1c0,1.7,0.3,3.1-3.1,3.1c-6.3,0-9.3,3-12.9,6.4
	C128.9,124.8,124.4,129.1,115.6,129.1"/>
<path fill="#FFFFFF" d="M37.2,119.2c-0.7,0-1.4-0.2-2-0.7c-2.6-2.2-4.9-3.8-9.5-3.8c-3.4,0-3.1-1.4-3.1-3.1c0-1.7-0.3-3.1,3.1-3.1
	c6.8,0,10.4,2.6,13.6,5.3c1.3,1.1,1.5,3.1,0.3,4.4C38.9,118.8,38,119.2,37.2,119.2"/>
<path fill="#FFFFFF" d="M194.7,28.3h5.8c1.6,0,2.4,0.5,3.1,2.5c1.1,3.3,5.5,14.8,6.5,17.3c1,2.6,2.1,2.5,3.1,0.2
	c1.7-3.8,6.8-14.9,8.5-18.1c1-1.9,2.8-1.9,3.8,0c2.3,4.5,6.7,14.1,8.4,18c1,2.2,2,2.4,3.1-0.1c0.3-0.7,5.4-14,6.6-17.3
	c0.7-1.9,1-2.5,3.1-2.5h5.1c0.8,0,1.4,0.8,1.1,1.6c0,0-12.5,34-15.3,41.1c-0.6,1.4-2.3,1.4-3,0c-3.5-7-7.1-15-9.4-19.8
	c-1.2-2.6-2.1-2.5-3.3,0c-3.2,6.4-6.7,13.3-10,19.7c-0.7,1.4-2.4,1.4-3,0c-0.8-1.7-15.4-41-15.4-41
	C193.3,29.2,193.9,28.3,194.7,28.3"/>
</svg>
