<?xml version="1.0" encoding="utf-8"?>
<!-- Generator: Adobe Illustrator 23.0.4, SVG Export Plug-In . SVG Version: 6.00 Build 0)  -->
<svg version="1.1" xmlns="http://www.w3.org/2000/svg" xmlns:xlink="http://www.w3.org/1999/xlink" x="0px" y="0px" viewBox="0 0 269.4 296.6" style="enable-background:new 0 0 269.4 296.6;" xml:space="preserve">
<style type="text/css">
	.st0{fill:#F0EEE0;}
	.st1{fill:#90983C;}
	.st2{fill:#FFFFFF;}
	.st3{fill:#C9CA9B;}
	.st4{fill:#AAAF68;}
	.st5{fill:#CECFA5;}
	.st6{fill:#ADB16E;}
</style>
<rect x="24.3" y="4.3" class="st0" width="171.6" height="231.4"/>
<polygon class="st1" points="23.1,3.2 23.1,235.7 25.5,235.7 25.5,5.5 194.7,5.5 194.7,235.7 197.1,235.7 197.1,3.2 "/>
<g>
	<path class="st2" d="M182.1,135.5c0,0-3.3-1.1-1.4-2.2l-0.8-0.9l-1.3,0.6c0,0,1.3,1.8-1.2,1.9l-60.8-28.9l0.5-2.8l0.6-0.4l-0.4-0.7
		l-0.2-1.6l-1.7-1.3l-2.3,0.7l-0.4,0.8L73.9,83.3l-18-8.5l0.1-1.2l-4.3-2.2l-1.5,0.9c0,0,0.9,1,0.2,1.3c-3.1-1.4-4.6-2.1-5.4-2.5
		v162.4h133.8l-0.1-90.4l1.4-2.5l1.3-2.1C181.4,138.6,180.6,136.2,182.1,135.5"/>
	<path class="st2" d="M178.9,235.8H45.1c-1.2,0-2.2-1-2.2-2.2V71.2c0-0.7,0.4-1.4,1-1.8c0.6-0.4,1.4-0.5,2.1-0.1l3,1.4
		c0,0,0.1-0.1,0.1-0.1l1.5-0.9c0.6-0.4,1.4-0.4,2.1-0.1l4.3,2.2c0.7,0.4,1.2,1.1,1.2,1.8l16.6,7.9l37.1,16.5
		c0.2-0.1,0.3-0.2,0.5-0.2l2.3-0.7c0.7-0.2,1.3-0.1,1.9,0.4l1.7,1.3c0.5,0.3,0.8,0.8,0.8,1.4l0.2,1.2l0.2,0.3c0.5,0.9,0.3,2-0.5,2.7
		l0,0.2l57.6,27.3c0.2-0.5,0.6-0.8,1.1-1.1l1.3-0.6c0.9-0.4,1.9-0.2,2.5,0.6l0.8,0.9c0.4,0.4,0.6,1,0.5,1.6c0.8,0.3,1.3,1,1.4,1.9
		c0,0.8-0.3,1.5-0.9,1.9c0,0.2,0.1,0.6,0.1,0.7c0.2,0.6,0.1,1.3-0.2,1.9l-1.3,2.1l-1.1,1.9l0.1,89.8c0,0.6-0.2,1.1-0.6,1.5
		C180,235.6,179.4,235.8,178.9,235.8 M47.2,231.4h129.5l-0.1-88.2c0-0.4,0.1-0.7,0.3-1l1.4-2.5l0.9-1.4c-0.1-0.6-0.1-1.1,0-1.7
		c-0.4,0.1-0.9,0.2-1.5,0.3c-0.3,0-0.7-0.1-1-0.2l-60.8-28.9c-0.9-0.4-1.4-1.4-1.2-2.3l0.5-2.8c0-0.2,0.1-0.4,0.2-0.6l-0.1-0.4
		l-0.2-0.1l-0.3,0.1c-0.2,0.5-0.6,0.8-1.1,1c-0.5,0.2-1.1,0.2-1.7,0L73,85.3l-18-8.5c-0.7-0.4-1.2-1.1-1.2-1.9l-1.1-0.5
		c-0.3,0.6-0.8,1.1-1.4,1.4c-0.6,0.2-1.2,0.2-1.7,0l-2.3-1.1V231.4z"/>
	<polygon class="st2" points="118.9,124.6 119.1,142 126.1,144.4 125.8,127.6 	"/>
	<path class="st2" d="M126.1,146.6c-0.2,0-0.5,0-0.7-0.1l-7-2.4c-0.9-0.3-1.4-1.1-1.5-2l-0.2-17.4c0-0.7,0.4-1.4,1-1.8
		c0.6-0.4,1.4-0.5,2.1-0.2l7,3c0.8,0.3,1.3,1.1,1.3,2l0.2,16.8c0,0.7-0.3,1.4-0.9,1.8C127,146.5,126.5,146.6,126.1,146.6
		 M121.2,140.5l2.6,0.9l-0.2-12.3l-2.6-1.1L121.2,140.5z"/>
	<polygon class="st2" points="137.9,132 138.2,149.3 145.2,151.8 144.9,135 	"/>
	<path class="st2" d="M145.2,154c-0.2,0-0.5,0-0.7-0.1l-7-2.4c-0.9-0.3-1.4-1.1-1.5-2l-0.3-17.4c0-0.7,0.4-1.4,1-1.8
		c0.6-0.4,1.4-0.5,2.1-0.2l7,3c0.8,0.3,1.3,1.1,1.3,2l0.3,16.8c0,0.7-0.3,1.4-0.9,1.8C146.1,153.8,145.6,154,145.2,154 M140.3,147.8
		l2.6,0.9l-0.2-12.3l-2.6-1.1L140.3,147.8z"/>
	<polygon class="st2" points="118.9,157.4 119.1,174.8 126.1,177.2 125.8,160.4 	"/>
	<path class="st2" d="M126.1,179.4c-0.2,0-0.5,0-0.7-0.1l-7-2.4c-0.9-0.3-1.4-1.1-1.5-2l-0.2-17.4c0-0.7,0.4-1.4,1-1.8
		c0.6-0.4,1.4-0.5,2.1-0.2l7,3c0.8,0.3,1.3,1.1,1.3,2l0.2,16.8c0,0.7-0.3,1.4-0.9,1.8C127,179.2,126.5,179.4,126.1,179.4
		 M121.2,173.2l2.6,0.9l-0.2-12.3l-2.6-1.1L121.2,173.2z"/>
	<polygon class="st2" points="137.9,164.8 138.2,182.1 145.2,184.6 144.9,167.7 	"/>
	<path class="st2" d="M145.2,186.7c-0.2,0-0.5,0-0.7-0.1l-7-2.4c-0.9-0.3-1.4-1.1-1.5-2l-0.3-17.4c0-0.7,0.4-1.4,1-1.8
		c0.6-0.4,1.4-0.5,2.1-0.2l7,3c0.8,0.3,1.3,1.1,1.3,2l0.3,16.8c0,0.7-0.3,1.4-0.9,1.8C146.1,186.6,145.6,186.7,145.2,186.7
		 M140.3,180.6l2.6,0.9l-0.2-12.3l-2.6-1.1L140.3,180.6z"/>
	<polygon class="st2" points="57,91.1 57.3,114.2 66.6,117.4 66.2,95.1 	"/>
	<path class="st2" d="M66.6,119.5c-0.2,0-0.5,0-0.7-0.1l-9.3-3.2c-0.9-0.3-1.4-1.1-1.5-2l-0.3-23c0-0.7,0.3-1.4,1-1.8
		c0.6-0.4,1.4-0.5,2.1-0.2l9.3,4c0.8,0.3,1.3,1.1,1.3,2l0.3,22.3c0,0.7-0.3,1.4-0.9,1.8C67.5,119.4,67,119.5,66.6,119.5 M59.4,112.6
		l4.9,1.7l-0.3-17.8l-4.9-2.1L59.4,112.6z"/>
	<polygon class="st2" points="95.9,104.8 96.3,127.8 105.5,131.1 105.2,108.8 	"/>
	<path class="st2" d="M105.5,133.2c-0.2,0-0.5,0-0.7-0.1l-9.3-3.2c-0.9-0.3-1.4-1.1-1.5-2l-0.3-23c0-0.7,0.3-1.4,1-1.8
		c0.6-0.4,1.4-0.5,2.1-0.2l9.3,4c0.8,0.3,1.3,1.1,1.3,2l0.3,22.3c0,0.7-0.3,1.4-0.9,1.8C106.4,133.1,106,133.2,105.5,133.2
		 M98.4,126.3l4.9,1.7l-0.3-17.8l-4.9-2.1L98.4,126.3z"/>
	<polygon class="st2" points="57,134.5 57.3,157.6 66.6,160.8 66.2,138.5 	"/>
	<path class="st2" d="M66.6,163c-0.2,0-0.5,0-0.7-0.1l-9.3-3.2c-0.9-0.3-1.4-1.1-1.5-2l-0.3-23c0-0.7,0.3-1.4,1-1.8
		c0.6-0.4,1.4-0.5,2.1-0.2l9.3,4c0.8,0.3,1.3,1.1,1.3,2l0.3,22.3c0,0.7-0.3,1.4-0.9,1.8C67.5,162.8,67,163,66.6,163 M59.4,156
		l4.9,1.7l-0.3-17.8l-4.9-2.1L59.4,156z"/>
	<polygon class="st2" points="95.9,148.2 96.3,171.2 105.5,174.5 105.2,152.2 	"/>
	<path class="st2" d="M105.5,176.6c-0.2,0-0.5,0-0.7-0.1l-9.3-3.2c-0.9-0.3-1.4-1.1-1.5-2l-0.3-23c0-0.7,0.4-1.4,1-1.8
		c0.6-0.4,1.4-0.5,2.1-0.2l9.3,4c0.8,0.3,1.3,1.1,1.3,2l0.3,22.3c0,0.7-0.3,1.4-0.9,1.8C106.4,176.5,106,176.6,105.5,176.6
		 M98.4,169.7l4.9,1.7l-0.3-17.8l-4.9-2.1L98.4,169.7z"/>
	<polygon class="st2" points="55.2,177.8 55.7,234.2 71.4,233.9 70.8,182 	"/>
	<polygon class="st2" points="57.4,180.6 57.9,232 69.2,231.8 68.7,183.7 	"/>
	<polygon class="st2" points="136.4,197 136.5,234.1 146,233 145.6,199.9 	"/>
	<polygon class="st2" points="138.5,200 138.7,231.7 143.8,231.1 143.5,201.5 	"/>
	<polygon class="st2" points="156,140.5 156.2,153.7 161.5,155.5 161.3,142.8 	"/>
	<path class="st2" d="M161.5,157.7c-0.2,0-0.5,0-0.7-0.1l-5.3-1.8c-0.9-0.3-1.4-1.1-1.5-2l-0.2-13.2c0-0.7,0.4-1.4,1-1.8
		c0.6-0.4,1.4-0.5,2.1-0.2l5.3,2.3c0.8,0.3,1.3,1.1,1.3,2l0.2,12.8c0,0.7-0.3,1.4-0.9,1.8C162.4,157.6,161.9,157.7,161.5,157.7
		 M158.3,152.1l1,0.3l-0.1-8.3l-1-0.4L158.3,152.1z"/>
	<polygon class="st2" points="170.4,146.1 170.6,159.2 176,161.1 175.8,148.3 	"/>
	<path class="st2" d="M176,163.3c-0.2,0-0.5,0-0.7-0.1l-5.3-1.8c-0.9-0.3-1.4-1.1-1.5-2l-0.2-13.2c0-0.7,0.4-1.4,1-1.8
		c0.6-0.4,1.4-0.5,2.1-0.2l5.3,2.3c0.8,0.3,1.3,1.1,1.3,2l0.2,12.8c0,0.7-0.3,1.4-0.9,1.8C176.9,163.1,176.4,163.3,176,163.3
		 M172.8,157.7l1,0.3l-0.1-8.3l-1-0.4L172.8,157.7z"/>
	<polygon class="st2" points="156,174.4 156.2,187.6 161.5,189.4 161.3,176.7 	"/>
	<path class="st2" d="M161.5,191.6c-0.2,0-0.5,0-0.7-0.1l-5.3-1.8c-0.9-0.3-1.4-1.1-1.5-2l-0.2-13.2c0-0.7,0.4-1.4,1-1.8
		c0.6-0.4,1.4-0.5,2.1-0.2l5.3,2.3c0.8,0.3,1.3,1.1,1.3,2l0.2,12.8c0,0.7-0.3,1.4-0.9,1.8C162.4,191.5,161.9,191.6,161.5,191.6
		 M158.3,186l1,0.3l-0.1-8.3l-1-0.4L158.3,186z"/>
	<polygon class="st2" points="170.4,180 170.6,193.2 176,195 175.8,182.2 	"/>
	<path class="st2" d="M176,197.2c-0.2,0-0.5,0-0.7-0.1l-5.3-1.8c-0.9-0.3-1.4-1.1-1.5-2l-0.2-13.2c0-0.7,0.4-1.4,1-1.8
		c0.6-0.4,1.4-0.5,2.1-0.2l5.3,2.3c0.8,0.3,1.3,1.1,1.3,2l0.2,12.8c0,0.7-0.3,1.4-0.9,1.8C176.9,197,176.4,197.2,176,197.2
		 M172.8,191.6l1,0.3l-0.1-8.3l-1-0.4L172.8,191.6z"/>
	<polygon class="st2" points="161.5,201.8 162.4,233.5 173.6,233.5 173,205.6 	"/>
	<path class="st2" d="M173.6,235.7h-11.2c-1.2,0-2.1-0.9-2.2-2.1l-0.9-31.7c0-0.7,0.3-1.4,0.9-1.8c0.6-0.4,1.3-0.5,2-0.3l11.4,3.9
		c0.9,0.3,1.5,1.1,1.5,2l0.6,27.8c0,0.6-0.2,1.1-0.6,1.6C174.7,235.4,174.2,235.7,173.6,235.7 M164.5,231.3h6.9l-0.5-24.1l-7-2.4
		L164.5,231.3z"/>
	<polygon class="st2" points="111.8,108.6 111.4,117.1 152.9,135.1 157.2,127.2 116.1,107.8 	"/>
	<path class="st2" d="M152.9,137.3c-0.3,0-0.6-0.1-0.9-0.2l-41.6-17.9c-0.8-0.4-1.4-1.2-1.3-2.1l0.5-8.6c0.1-1,0.8-1.8,1.8-2
		l4.2-0.7c0.4-0.1,0.9,0,1.3,0.2l41.1,19.4c0.5,0.3,0.9,0.7,1.1,1.3c0.2,0.6,0.1,1.2-0.2,1.7l-4.2,7.8
		C154.5,136.8,153.7,137.3,152.9,137.3 M113.6,115.8l38.3,16.6l2.2-4.1l-38.4-18.2l-1.8,0.3L113.6,115.8z"/>
	<polygon class="st2" points="113.7,104.8 53,78.7 53.9,77.5 50.7,76.4 48.3,78.7 111.4,107.4 116.6,105.8 	"/>
	<path class="st2" d="M111.4,109.6c-0.3,0-0.6-0.1-0.9-0.2L47.4,80.6c-0.7-0.3-1.1-0.9-1.2-1.6c-0.1-0.7,0.1-1.4,0.6-1.9l2.3-2.2
		c0.6-0.6,1.4-0.8,2.2-0.5l3.3,1.1c0.7,0.2,1.2,0.8,1.4,1.5c0.1,0.2,0.1,0.5,0.1,0.7l58.5,25.2l2.8,1c0.9,0.3,1.5,1.2,1.4,2.1
		c0,0.9-0.6,1.8-1.5,2l-5.2,1.6C111.8,109.6,111.6,109.6,111.4,109.6"/>
	<rect x="111.4" y="108.6" class="st2" width="0.9" height="124.5"/>
	<path class="st2" d="M112.3,235.2h-0.9c-1.2,0-2.2-1-2.2-2.2V108.6c0-1.2,1-2.2,2.2-2.2h0.9c1.2,0,2.2,1,2.2,2.2V233
		C114.5,234.2,113.5,235.2,112.3,235.2"/>
	<rect x="152.8" y="127.6" class="st2" width="0.9" height="105.4"/>
	<path class="st2" d="M153.8,235.2h-0.9c-1.2,0-2.2-1-2.2-2.2V127.6c0-1.2,1-2.2,2.2-2.2h0.9c1.2,0,2.2,1,2.2,2.2V233
		C155.9,234.2,155,235.2,153.8,235.2"/>
	<polygon class="st2" points="152.9,129.5 178.2,141.1 176.3,142.9 152,132.1 	"/>
	<path class="st2" d="M176.3,145.1c-0.3,0-0.6-0.1-0.9-0.2l-24.3-10.8c-1-0.5-1.5-1.6-1.2-2.7l0.9-2.6c0.2-0.6,0.6-1,1.2-1.3
		c0.6-0.2,1.2-0.2,1.7,0l25.2,11.6c0.6,0.3,1.1,0.9,1.2,1.6c0.1,0.7-0.1,1.4-0.6,1.9l-1.9,1.9C177.4,144.9,176.9,145.1,176.3,145.1"
		/>
	<polygon class="st2" points="53.9,101.5 69.8,107.1 69.3,108.6 53.5,103.3 	"/>
	<path class="st2" d="M69.3,110.7c-0.2,0-0.5,0-0.7-0.1l-15.9-5.2c-1.1-0.4-1.7-1.5-1.4-2.6l0.5-1.9c0.1-0.6,0.5-1.1,1.1-1.4
		c0.5-0.3,1.2-0.3,1.7-0.1l15.9,5.6c1.1,0.4,1.7,1.6,1.3,2.7l-0.5,1.5c-0.2,0.6-0.6,1-1.1,1.3C70,110.6,69.7,110.7,69.3,110.7"/>
	<polygon class="st2" points="92.2,114.2 108.1,119.8 107.6,121.3 91.8,116 	"/>
	<path class="st2" d="M107.6,123.4c-0.2,0-0.5,0-0.7-0.1l-15.9-5.2c-1.1-0.4-1.7-1.5-1.4-2.6l0.5-1.9c0.1-0.6,0.5-1.1,1.1-1.4
		c0.5-0.3,1.2-0.3,1.7-0.1l15.9,5.6c1.1,0.4,1.7,1.6,1.3,2.7l-0.5,1.5c-0.2,0.6-0.6,1-1.1,1.3C108.3,123.4,108,123.4,107.6,123.4"/>
	<polygon class="st2" points="53.9,146.3 69.8,151.9 69.3,153.4 53.5,148.2 	"/>
	<path class="st2" d="M69.3,155.6c-0.2,0-0.5,0-0.7-0.1l-15.9-5.2c-1.1-0.4-1.7-1.5-1.4-2.6l0.5-1.9c0.2-0.6,0.5-1.1,1.1-1.4
		c0.5-0.3,1.2-0.3,1.7-0.1l15.9,5.6c1.1,0.4,1.7,1.6,1.3,2.7l-0.5,1.5c-0.2,0.6-0.6,1-1.1,1.3C70,155.5,69.7,155.6,69.3,155.6"/>
	<polygon class="st2" points="92.2,159 108.1,164.6 107.6,166.1 91.8,160.9 	"/>
	<path class="st2" d="M107.6,168.3c-0.2,0-0.5,0-0.7-0.1l-15.9-5.2c-1.1-0.4-1.7-1.5-1.4-2.6l0.5-1.9c0.1-0.6,0.5-1.1,1.1-1.4
		c0.5-0.3,1.2-0.3,1.7-0.1l15.9,5.6c1.1,0.4,1.7,1.6,1.3,2.7l-0.5,1.5c-0.2,0.6-0.6,1-1.1,1.3C108.3,168.2,108,168.3,107.6,168.3"/>
	<polygon class="st2" points="95.9,188.2 96.3,211.3 105.5,214.5 105.7,191.2 	"/>
	<path class="st2" d="M105.5,216.6c-0.2,0-0.5,0-0.7-0.1l-9.3-3.2c-0.9-0.3-1.4-1.1-1.5-2l-0.3-23c0-0.7,0.3-1.3,0.9-1.8
		c0.6-0.4,1.3-0.5,1.9-0.3l9.8,3c0.9,0.3,1.5,1.1,1.5,2.1l-0.2,23.2c0,0.7-0.3,1.4-0.9,1.8C106.4,216.5,106,216.6,105.5,216.6
		 M98.4,209.7l5,1.7l0.2-18.6l-5.4-1.7L98.4,209.7z"/>
	<polygon class="st2" points="92.2,201.4 108.1,207 107.6,208.5 91.8,203.3 	"/>
	<path class="st2" d="M107.6,210.7c-0.2,0-0.5,0-0.7-0.1l-15.9-5.2c-1.1-0.4-1.7-1.5-1.4-2.6l0.5-1.9c0.1-0.6,0.5-1.1,1.1-1.4
		s1.2-0.3,1.7-0.1l15.9,5.6c1.1,0.4,1.7,1.6,1.3,2.7l-0.5,1.5c-0.2,0.6-0.6,1-1.1,1.3C108.3,210.6,108,210.7,107.6,210.7"/>
	<polygon class="st2" points="118.5,166.5 126.6,169.4 126.3,170.1 118.2,167.4 	"/>
	<path class="st2" d="M126.3,172.3c-0.2,0-0.5,0-0.7-0.1l-8.1-2.7c-1.1-0.4-1.7-1.5-1.4-2.6l0.2-1c0.1-0.6,0.5-1.1,1.1-1.4
		c0.5-0.3,1.2-0.3,1.8-0.1l8.1,2.9c1.1,0.4,1.7,1.6,1.3,2.7l-0.2,0.8c-0.2,0.5-0.6,1-1.1,1.3C127,172.2,126.6,172.3,126.3,172.3"/>
	<polygon class="st2" points="118.9,191.9 119.1,209.3 126.1,211.7 126,194.1 	"/>
	<path class="st2" d="M126.1,213.9c-0.2,0-0.5,0-0.7-0.1l-7-2.4c-0.9-0.3-1.4-1.1-1.5-2l-0.2-17.4c0-0.7,0.3-1.4,0.9-1.8
		c0.6-0.4,1.3-0.5,1.9-0.3l7.2,2.3c0.9,0.3,1.5,1.1,1.5,2.1l0.1,17.6c0,0.7-0.3,1.4-0.9,1.8C127,213.7,126.5,213.9,126.1,213.9
		 M121.2,207.7l2.7,0.9l0-12.9l-2.8-0.9L121.2,207.7z"/>
	<polygon class="st2" points="118.5,201 126.6,203.8 126.3,204.6 118.2,201.9 	"/>
	<path class="st2" d="M126.3,206.8c-0.2,0-0.5,0-0.7-0.1l-8.1-2.7c-1.1-0.4-1.7-1.5-1.4-2.6l0.2-0.9c0.1-0.6,0.5-1.1,1.1-1.4
		c0.5-0.3,1.2-0.3,1.7-0.1l8.1,2.9c1.1,0.4,1.7,1.6,1.3,2.7l-0.2,0.8c-0.2,0.5-0.6,1-1.1,1.3C127,206.7,126.6,206.8,126.3,206.8"/>
	<polygon class="st2" points="138,173 146.1,175.8 145.8,176.6 137.7,173.9 	"/>
	<path class="st2" d="M145.8,178.8c-0.2,0-0.5,0-0.7-0.1L137,176c-1.1-0.4-1.7-1.5-1.4-2.6l0.2-0.9c0.2-0.6,0.5-1.1,1.1-1.4
		c0.5-0.3,1.2-0.3,1.7-0.1l8.1,2.9c1.1,0.4,1.7,1.6,1.4,2.7l-0.2,0.8c-0.2,0.6-0.6,1-1.1,1.3C146.5,178.7,146.2,178.8,145.8,178.8"
		/>
	<polygon class="st2" points="118.9,132.5 127,135.3 126.8,136.1 118.7,133.4 	"/>
	<path class="st2" d="M126.8,138.3c-0.2,0-0.5,0-0.7-0.1l-8.1-2.7c-1.1-0.4-1.7-1.5-1.4-2.6l0.2-1c0.1-0.6,0.5-1.1,1.1-1.4
		c0.5-0.3,1.2-0.3,1.7-0.1l8.1,2.9c1.1,0.4,1.7,1.6,1.3,2.7l-0.2,0.8c-0.2,0.6-0.6,1-1.1,1.3C127.5,138.2,127.1,138.3,126.8,138.3"
		/>
	<polygon class="st2" points="137.7,139 145.8,141.8 145.6,142.6 137.5,139.9 	"/>
	<path class="st2" d="M145.6,144.7c-0.2,0-0.5,0-0.7-0.1l-8.1-2.7c-1.1-0.4-1.7-1.5-1.4-2.6l0.2-1c0.1-0.6,0.5-1.1,1.1-1.4
		c0.5-0.3,1.2-0.3,1.8-0.1l8.1,2.9c1.1,0.4,1.7,1.6,1.4,2.7l-0.2,0.8c-0.2,0.6-0.6,1-1.1,1.3C146.3,144.7,145.9,144.7,145.6,144.7"
		/>
	<polygon class="st2" points="155.8,180.5 162.2,182.8 162,183.4 155.6,181.3 	"/>
	<path class="st2" d="M162,185.6c-0.2,0-0.5,0-0.7-0.1l-6.5-2.1c-1.1-0.4-1.7-1.5-1.4-2.6l0.2-0.8c0.1-0.6,0.5-1.1,1.1-1.4
		c0.5-0.3,1.2-0.3,1.7-0.1l6.5,2.3c1.1,0.4,1.7,1.6,1.4,2.7l-0.2,0.6c-0.2,0.6-0.6,1-1.1,1.3C162.7,185.5,162.4,185.6,162,185.6"/>
	<polygon class="st2" points="170,185 176.4,187.3 176.2,187.9 169.8,185.7 	"/>
	<path class="st2" d="M176.2,190c-0.2,0-0.5,0-0.7-0.1l-6.5-2.1c-1.1-0.4-1.7-1.5-1.4-2.6l0.2-0.8c0.1-0.6,0.5-1.1,1.1-1.4
		c0.5-0.3,1.2-0.3,1.7-0.1l6.5,2.3c1.1,0.4,1.7,1.6,1.4,2.7l-0.2,0.6c-0.2,0.6-0.6,1-1.1,1.3C176.9,190,176.6,190,176.2,190"/>
	<polygon class="st2" points="155.4,146.4 161.9,148.7 161.7,149.3 155.3,147.2 	"/>
	<path class="st2" d="M161.7,151.5c-0.2,0-0.5,0-0.7-0.1l-6.5-2.1c-1.1-0.4-1.7-1.5-1.4-2.6l0.2-0.8c0.1-0.6,0.5-1.1,1.1-1.4
		c0.5-0.3,1.2-0.3,1.8-0.1l6.5,2.3c1.1,0.4,1.7,1.6,1.3,2.7l-0.2,0.6c-0.2,0.6-0.6,1-1.1,1.3C162.4,151.4,162.1,151.5,161.7,151.5"
		/>
	<polygon class="st2" points="169.8,151 176.2,153.3 176,153.9 169.6,151.8 	"/>
	<path class="st2" d="M176,156.1c-0.2,0-0.5,0-0.7-0.1l-6.5-2.1c-1.1-0.4-1.7-1.5-1.4-2.6l0.2-0.8c0.2-0.6,0.5-1.1,1.1-1.4
		c0.5-0.3,1.2-0.3,1.7-0.1l6.5,2.3c1.1,0.4,1.7,1.6,1.4,2.7l-0.2,0.6c-0.2,0.6-0.6,1-1.1,1.3C176.7,156,176.4,156.1,176,156.1"/>
	<polygon class="st2" points="43.3,71.4 5.1,96.3 5.1,233.6 43.3,233.6 	"/>
	<path class="st2" d="M43.3,235.8H5.1c-1.2,0-2.2-1-2.2-2.2V96.3c0-0.7,0.4-1.4,1-1.8l38.2-24.9c0.7-0.4,1.5-0.5,2.2-0.1
		c0.7,0.4,1.1,1.1,1.1,1.9v162.3C45.5,234.8,44.5,235.8,43.3,235.8 M7.3,231.4h33.8V75.4L7.3,97.4V231.4z"/>
	<path class="st1" d="M182.1,136.2c0,0-3.3-1.1-1.4-2.2l-0.8-0.9l-1.3,0.6c0,0,1.3,1.8-1.2,1.9l-60.8-28.9l0.5-2.8l0.6-0.4l-0.4-0.7
		l-0.2-1.6l-1.7-1.3l-2.3,0.7l-0.4,0.8L73.9,84l-18-8.5l0.1-1.2l-4.3-2.2l-1.5,0.9c0,0,0.9,1,0.2,1.3c-3.1-1.4-4.6-2.1-5.4-2.5
		v162.4h133.8l-0.1-90.4l1.4-2.5l1.3-2.1C181.4,139.3,180.6,136.9,182.1,136.2"/>
	<polygon class="st2" points="118.9,125.3 119.1,142.7 126.1,145.1 125.8,128.3 	"/>
	<polygon class="st2" points="137.9,132.7 138.2,150 145.2,152.5 144.9,135.6 	"/>
	<polygon class="st2" points="118.9,158.1 119.1,175.5 126.1,177.9 125.8,161.1 	"/>
	<polygon class="st2" points="137.9,165.4 138.2,182.8 145.2,185.2 144.9,168.4 	"/>
	<polygon class="st2" points="57,91.8 57.3,114.8 66.6,118.1 66.2,95.8 	"/>
	<polygon class="st2" points="95.9,105.5 96.3,128.5 105.5,131.7 105.2,109.5 	"/>
	<polygon class="st2" points="57,135.2 57.3,158.2 66.6,161.5 66.2,139.2 	"/>
	<polygon class="st2" points="95.9,148.9 96.3,171.9 105.5,175.2 105.2,152.9 	"/>
	<polygon class="st2" points="96.5,192.9 96.5,234.6 105.5,234.8 105.5,194.9 	"/>
	<polygon class="st2" points="156,141.2 156.2,154.4 161.5,156.2 161.3,143.4 	"/>
	<polygon class="st2" points="170.4,146.7 170.6,159.9 176,161.8 175.8,149 	"/>
	<polygon class="st2" points="156,175.1 156.2,188.3 161.5,190.1 161.3,177.4 	"/>
	<polygon class="st2" points="170.4,180.7 170.6,193.9 176,195.7 175.8,182.9 	"/>
	<polygon class="st2" points="111.8,109.2 111.4,117.8 152.9,135.8 157.2,127.9 116.1,108.5 	"/>
	<polygon class="st2" points="113.7,105.5 53,79.3 53.9,78.2 50.7,77.1 48.3,79.3 111.4,108.1 116.6,106.5 	"/>
	<rect x="111.4" y="109.2" class="st2" width="0.9" height="125.4"/>
	<polygon class="st2" points="152.8,234.8 153.8,234.8 153.8,129.4 152.8,128.3 	"/>
	<polygon class="st2" points="152.9,130.2 178.2,141.8 176.3,143.6 152,132.8 	"/>
	<polygon class="st1" points="53.9,102.1 69.8,107.8 69.3,109.3 53.5,104 	"/>
	<polygon class="st1" points="92.2,114.8 108.1,120.5 107.6,122 91.8,116.7 	"/>
	<polygon class="st1" points="53.9,147 69.8,152.6 69.3,154.1 53.5,148.9 	"/>
	<polygon class="st1" points="92.2,159.7 108.1,165.3 107.6,166.8 91.8,161.6 	"/>
	<polygon class="st2" points="136.7,194.8 137.1,213.9 144.2,215.4 144.4,197.1 	"/>
	<polygon class="st1" points="133.5,205.8 146.4,208.8 146.2,210 133.3,207.3 	"/>
	<polygon class="st1" points="118.5,167.2 126.6,170 126.3,170.8 118.2,168.1 	"/>
	<polygon class="st1" points="138,173.7 146.1,176.5 145.8,177.3 137.7,174.6 	"/>
	<polygon class="st1" points="118.9,133.2 127,136 126.8,136.8 118.7,134.1 	"/>
	<polygon class="st1" points="137.7,139.6 145.8,142.5 145.6,143.3 137.5,140.6 	"/>
	<polygon class="st1" points="155.8,181.2 162.2,183.5 162,184.1 155.6,182 	"/>
	<polygon class="st1" points="170,185.7 176.4,188 176.2,188.6 169.8,186.4 	"/>
	<polygon class="st1" points="155.4,147.1 161.9,149.4 161.7,150 155.3,147.9 	"/>
	<polygon class="st1" points="169.8,151.7 176.2,154 176,154.6 169.6,152.5 	"/>
	<polygon class="st3" points="117.8,234.2 130.1,234.2 130.1,194.3 117.8,190.9 	"/>
	<polygon class="st3" points="161.5,202.5 161.5,234.2 173,234.2 173,206.3 	"/>
	<polygon class="st3" points="54.3,223.2 90.6,224.3 91,188.1 54.7,181.2 	"/>
	<polygon class="st3" points="5.1,234.3 43.3,234.3 43.3,72 5.1,97 	"/>
	<path class="st2" d="M114.1,190.7c-1.3-7.3-23.5-13.8-23.5-13.8l-36.1-6l-0.4,12.5l23.9,1.3l12.3,2l-0.1,2.6L114.1,190.7z"/>
	<polygon class="st1" points="54.1,183.4 84.5,185 114.1,190.7 90.2,189.4 	"/>
	<path class="st1" d="M54.4,170.9c0,0,25.9,5.5,33.4,15.2l-3.1-0.8c0,0-10.7-10.1-30.3-12.1V170.9z"/>
	<path class="st2" d="M245.1,81.4c10.7-3.2,11-10.9,11-10.9C244.4,68.9,245.1,81.4,245.1,81.4 M262.6,74
		c-11.9-0.9-10.3,11.6-10.3,11.6C262.7,81.7,262.6,74,262.6,74 M251.1,88.6c-11.8-1.6-11,10.9-11,10.9
		C250.7,96.3,251.1,88.6,251.1,88.6 M231.4,66.4c0,0-3.7,6.7,3.6,15.1C235.1,81.4,242.3,71.2,231.4,66.4 M253.7,96.1
		c10.7-3.2,11-10.9,11-10.9C253,83.6,253.7,96.1,253.7,96.1 M229.4,114.8c10.2,10,19,5.7,19,5.7C243,106.3,229.4,114.8,229.4,114.8
		 M251,63.2c10.7-3.2,11-10.9,11-10.9C250.2,50.7,251,63.2,251,63.2 M250.1,55.7c5.4-9.7,0.4-15.5,0.4-15.5
		C240.9,47.2,250.1,55.7,250.1,55.7 M234.8,97.1l-9.8,5.3l-3,6.8l-4.5,1.5l-0.8-4.5l6.8-15.8l-5.3-6v6.8l-7.5,10.5l0.8,10.5
		c0,0-5.3,11.3-12,15c0,0-10.5-33.8-10.5-36s5.3-9,5.3-9l-3.8-10.5L189,82.1l-6,10.5l3,16.5l3.8,6v6.8c0,0-7.5-3.8-11.3-3.8l-3.7-6
		l-7.5-4.5c0,0,6,6,3,12.8c0,0,0.8,3.8,6.8,4.5c6,0.8,11.3,5.3,11.3,5.3s-5.3,1.5-0.8,4.5c0,0,0.8,83-8.1,99.8H211
		c-2.7-10.6-15.2-85.1-3.1-100.6c0,0,10.5-18.8,16.5-21c6-2.3,6-10.5,6-10.5L234.8,97.1z M158.6,86.2c0,0-3.7,6.7,3.6,15.1
		C162.2,101.2,169.5,91,158.6,86.2 M236.5,110c14.3,0.1,17.7-9.1,17.7-9.1C240.4,94.5,236.5,110,236.5,110 M146.7,126.4
		c0,0,9.5,2.4,17.4-9.5C164.2,116.9,149.1,111.3,146.7,126.4 M162.9,108.8c0,0-1.9-12.4-13-8.4C149.9,100.4,151.8,107.8,162.9,108.8
		 M141.2,83.8c0,0,1.9,7.4,13.1,8.4C154.2,92.1,152.4,79.7,141.2,83.8 M213.2,64.8c0,0,1.9,7.4,13.1,8.4
		C226.3,73.1,224.4,60.7,213.2,64.8 M191.1,67.1c0,0,1.9,7.4,13,8.4C204.1,75.5,202.3,63.1,191.1,67.1 M155.3,113.1
		c0,0-7-14.4-19.1-5.2C136.1,107.9,141.3,116.1,155.3,113.1 M228.8,65.5c10.7-3.2,11-10.9,11-10.9C228,53,228.8,65.5,228.8,65.5
		 M244.3,73.9c5.4-9.7,0.4-15.5,0.4-15.5C235,65.4,244.3,73.9,244.3,73.9 M166.9,73.1c0,0-1.8-12.4-13-8.4
		C153.8,64.8,155.8,72.2,166.9,73.1 M160.2,46.6c0,0-3.7,6.7,3.6,15.1C163.8,61.6,171,51.4,160.2,46.6 M163.3,80.6
		c0,0,1.9,7.4,13,8.4C176.4,89,174.5,76.6,163.3,80.6 M149.9,69.5c0,0-3.7,6.7,3.6,15.1C153.5,84.6,160.7,74.4,149.9,69.5
		 M125.3,96.4c0,0,1.9,7.4,13,8.4C138.4,104.8,136.5,92.4,125.3,96.4 M172.1,66.4c0,0-3.7,6.7,3.6,15.1
		C175.7,81.4,182.9,71.2,172.1,66.4 M140.4,52.9c0,0-3.7,6.7,3.6,15.1C144,68,151.2,57.8,140.4,52.9 M137.7,97.3
		c0,0,7.2-10.2-3.6-15.1C134,82.2,130.3,88.9,137.7,97.3 M144.7,75.5c0,0-1.9-12.4-13-8.4C131.7,67.1,133.6,74.5,144.7,75.5
		 M185.5,46.6c0,0-3.7,6.7,3.6,15.1C189.1,61.6,196.4,51.4,185.5,46.6 M209.3,45c0,0-3.7,6.7,3.6,15.1
		C212.9,60.1,220.1,49.8,209.3,45 M227.2,35.7c-11.8-1.6-11,10.9-11,10.9C226.8,43.3,227.2,35.7,227.2,35.7 M173.6,39.4
		c0,0-3.7,6.7,3.6,15.1C177.3,54.5,184.5,44.3,173.6,39.4 M221.9,50.5c0,0-3.7,6.7,3.6,15.1C225.6,65.6,232.8,55.4,221.9,50.5
		 M209.3,69.5c0,0-3.7,6.7,3.6,15.1C212.9,84.6,220.1,74.4,209.3,69.5 M181.2,71.1c0,0,7.2-10.2-3.6-15.1
		C177.6,56.1,173.9,62.8,181.2,71.1 M199.8,52.9c0,0-3.7,6.7,3.6,15.1C203.4,68,210.6,57.8,199.8,52.9 M238.8,42.4
		c-11.9-0.9-10.3,11.6-10.3,11.6C239,50,238.8,42.4,238.8,42.4 M204,40c-11.9-0.9-10.3,11.6-10.3,11.6C204.1,47.6,204,40,204,40"/>
	<path class="st2" d="M211,235.9h-31.5c-0.8,0-1.5-0.4-1.9-1c-0.4-0.6-0.4-1.5-0.1-2.1c8-15.2,7.9-87.3,7.9-97
		c-1.4-1.2-2-2.5-1.8-3.9c0.1-0.7,0.4-1.3,0.8-1.8c-1.9-1.2-4.7-2.6-7.7-3c-7.5-0.9-8.6-6-8.6-6.2c-0.1-0.4,0-0.9,0.1-1.3
		c2.4-5.3-2.5-10.3-2.5-10.4c-0.8-0.8-0.8-2-0.2-2.9c0.7-0.9,1.9-1.1,2.8-0.5l7.5,4.5c0.3,0.2,0.5,0.4,0.7,0.7l3.2,5.1
		c2.5,0.3,5.6,1.5,7.9,2.5v-2.8l-3.4-5.5c-0.1-0.2-0.2-0.5-0.3-0.8l-3-16.5c-0.1-0.5,0-1,0.3-1.5l5.8-10.2l1.4-10.1
		c0.1-0.8,0.6-1.4,1.4-1.7c-0.6-1-0.8-1.8-0.8-1.9c-0.3-1.1,0.3-2.2,1.4-2.6c3.1-1.1,6-1.2,8.2-0.4c-3.3-6.5-1.3-11.6-0.7-12.6
		c-1,0.5-2.1,1.1-3.3,1.5c-0.3,0.1-0.6,0.1-0.8,0.1c0.4,4.8-2.6,9-2.7,9.2c-0.4,0.5-1,0.9-1.7,0.9c-0.7,0.1-1.3-0.2-1.7-0.7
		c-8.3-9.4-4.1-17.2-3.9-17.6c0.5-1,1.8-1.4,2.8-0.9c2.2,1,3.9,2.2,5.1,3.8c0.2-2.2,0.9-5,2.9-7.2c2.2-2.5,5.4-3.7,9.8-3.4
		c1.1,0.1,2,1,2,2.1c0,0.3,0,6.2-6.3,10.8c0.3,0,0.5,0.1,0.8,0.2c3.7,1.7,6.1,4.1,6.9,7.2c1.5,5.5-2.2,10.8-2.4,11.1
		c-0.2,0.3-0.5,0.5-0.8,0.7c1,1.7,1.5,3.5,1.8,4.9c-0.2-3.7,1.1-6.1,1.2-6.3c0.5-1,1.7-1.4,2.8-0.9c1.3,0.6,2.5,1.3,3.5,2.1
		c-1.9-2.2-2.4-4.2-2.5-4.3c-0.3-1.1,0.3-2.2,1.4-2.6c3.1-1.1,6-1.2,8.2-0.4c-3.7-7.2-0.8-12.6-0.6-12.8c0.5-1,1.8-1.4,2.8-0.9
		c1.4,0.6,2.6,1.3,3.6,2.2c0.2-2.2,0.9-5,2.9-7.1c2.2-2.5,5.4-3.7,9.8-3.4c1.1,0.1,2,1,2,2.1c0,0.3,0,5.7-5.4,10.1
		c1.4-0.2,2.9-0.2,4.5,0c1.1,0.2,1.9,1.1,1.9,2.3c0,0.2-0.1,2.2-1.5,4.7c0.8-1,1.8-1.9,2.9-2.7c0.9-0.7,2.2-0.5,2.9,0.3
		c0.1,0.2,1.9,2.3,2.5,5.9c0-0.8,0-2.9,0.7-5.2c-0.3-0.1-0.6-0.3-0.9-0.5c-0.2-0.2-5-4.7-4.7-10.3c0.2-3.2,2-6.1,5.3-8.5
		c0.9-0.7,2.2-0.5,2.9,0.3c0.2,0.2,4.1,4.9,2,12.7c2.2-1.3,4.9-1.7,8.1-1.3c1.1,0.1,1.9,1.1,1.9,2.2c0,0.4-0.6,9.2-12.6,12.9
		c-0.6,0.2-1.3,0.1-1.9-0.3c-0.4-0.3-0.7-0.7-0.8-1.1c0.2,1.7,0,3.6-0.6,5.8c2.2-1.3,4.9-1.7,8.1-1.3c1.1,0.2,1.9,1.1,1.9,2.2
		c0,0.1,0,0.7-0.3,1.6c1.4-0.4,2.9-0.5,4.7-0.3c1.1,0.1,2,1,2,2.1c0,0.3,0,4.9-4.3,9.1c1.4-0.2,2.9-0.2,4.6,0
		c1.1,0.2,1.9,1.1,1.9,2.2c0,0.4-0.6,9.2-12.6,12.9c-0.6,0.2-1.3,0.1-1.9-0.3c-0.5-0.4-0.9-1-0.9-1.7c0-0.1-0.1-1.2,0.1-2.7
		c-0.7,1.2-1.6,2.5-3,3.8c2,0.1,4.2,0.7,6.4,1.8c1,0.5,1.5,1.7,1.1,2.7c-0.1,0.4-2.8,7.4-12.5,9.7c2.6,1.3,5,3.8,6.8,8.3
		c0.4,1.1-0.1,2.2-1.1,2.7c-0.2,0.1-2.4,1.1-5.9,1.1c-3.8,0-9.5-1.3-15.6-7.2c-0.5-0.5-0.7-1.1-0.6-1.8c0.1-0.5,0.3-0.9,0.6-1.3
		c-0.8,0.6-1.7,1.2-2.8,1.6c-3.8,1.4-11.5,13.1-15.4,20.1c-0.1,0.1-0.1,0.2-0.2,0.3c-10.8,13.8-0.2,83.1,3.5,98
		c0.2,0.7,0,1.3-0.4,1.9C212.3,235.6,211.6,235.9,211,235.9 M182.7,232.3h25.6c-3.1-15.5-14.4-83.6-2.3-99.6
		c2-3.5,11.2-19.5,17.6-21.9c3.5-1.3,4.4-5.8,4.5-7.7l-1.4,0.7l-2.7,6.1c-0.2,0.6-0.7,1-1.3,1.2l-4.5,1.5c-0.6,0.2-1.3,0.1-1.8-0.2
		c-0.5-0.3-0.9-0.9-1-1.5l-0.8-4.5c-0.1-0.4,0-0.8,0.1-1.2l6.2-14.5l-0.6-0.6v1c0,0.4-0.1,0.9-0.4,1.3l-7,9.9l0.7,9.7
		c0,0.4,0,0.7-0.2,1.1c-0.2,0.5-5.6,11.9-12.9,16c-0.6,0.3-1.3,0.4-1.9,0.1c-0.6-0.2-1.1-0.7-1.3-1.4c-3.2-10.3-10.6-34.4-10.6-36.7
		c0-0.4,0.1-0.7,0.2-1.2l-1.7,3.1l2.8,15.3l3.5,5.7c0.2,0.3,0.3,0.7,0.3,1.2v6.8c0,0.8-0.4,1.4-1,1.8c-0.6,0.4-1.4,0.4-2.1,0.1
		c-2.7-1.4-7.9-3.5-10.3-3.5c-0.7,0-1.4-0.4-1.8-1l-3.5-5.6l-0.3-0.2c0.5,2,0.5,4.4-0.3,6.8c0.4,0.7,1.6,2,4.7,2.4
		c6.6,0.8,12.2,5.6,12.4,5.8c0.6,0.5,0.9,1.3,0.7,2.1c-0.2,0.8-0.8,1.4-1.5,1.6c-0.2,0.1-0.4,0.2-0.6,0.3c0.1,0.1,0.3,0.2,0.5,0.4
		c0.6,0.4,1,1.1,1,1.8C189.7,137.9,190.3,210.2,182.7,232.3 M193.8,74.1l2.6,7.2c0.3,0.7,0.1,1.5-0.3,2.1c-2.4,3.1-4.7,6.8-4.8,7.7
		c0.2,1.9,5.6,19.9,9.5,32.5c3.9-3.4,7.3-9.2,8.6-11.9l-0.7-9.9c0-0.5,0.1-1,0.4-1.4l7.1-9.9v-6.1c0-0.9,0.6-1.7,1.4-2
		c0.8-0.3,1.8-0.1,2.4,0.6l5.3,6c0.6,0.6,0.7,1.5,0.4,2.3l-6.5,15.2l0.2,1.4l1.2-0.4l2.6-5.9c0.2-0.4,0.5-0.8,1-1l9.8-5.3
		c0.9-0.5,2.1-0.3,2.7,0.5c0.7,0.8,0.6,2,0,2.8l-4,4.7c-0.1,2-0.9,6.8-4.3,9.8c0,0,0.1,0,0.1-0.1c0.1-0.1,2.7-1.7,6.2-2.5
		c-0.1-0.3-0.1-0.7,0-1c0.1-0.3,1.2-4.7,4.4-8.2c0,0,0,0,0,0c-0.5-0.4-0.9-1-0.9-1.7c0-0.3-0.3-6.3,3.3-10.2c2.2-2.3,5.2-3.4,9-3.1
		c-0.1-0.2-0.1-0.3-0.1-0.5c0-0.1-0.2-1.9,0.1-4.2c-1.3,0.7-2.8,1.3-4.5,1.8c-0.6,0.2-1.3,0.1-1.9-0.3c-0.5-0.4-0.9-1-0.9-1.6
		c0-0.2-0.1-2.7,0.7-5.5c-0.3-0.1-0.6-0.3-0.9-0.5c-0.2-0.2-5-4.7-4.6-10.3c0.1-1.4,0.4-2.7,1.1-3.9c-1.1,1.4-2.7,2.9-4.9,4.2
		c2.6,1.6,4.2,3.7,4.9,6.2c1.5,5.5-2.2,10.8-2.4,11.1c-0.4,0.5-1,0.9-1.7,0.9c-0.6,0-1.3-0.2-1.7-0.7c-5.7-6.5-5.5-12.2-4.7-15.2
		c-0.4,0-0.8-0.1-1.2-0.4c-0.1-0.1-0.2-0.2-0.3-0.3c-0.2,0.2-0.4,0.4-0.7,0.5c1.1,1.9,1.6,3.8,1.9,5.3c0.1,0.7-0.1,1.3-0.6,1.8
		c-0.5,0.5-1.1,0.7-1.8,0.7c-5.2-0.5-8.6-2.2-10.9-4.1c0.9,1.1,1.5,2.3,1.9,3.6c1.5,5.5-2.2,10.8-2.4,11.1c-0.4,0.5-1,0.9-1.7,0.9
		c-0.7,0-1.3-0.2-1.7-0.7c-3.4-3.8-4.7-7.4-5-10.3c0,0.5-0.2,0.9-0.6,1.3c-0.5,0.5-1.1,0.7-1.8,0.7C199.3,77.3,196,75.8,193.8,74.1
		 M233.3,115.4c4.1,3.2,7.7,3.9,10.2,3.9c0.7,0,1.3-0.1,1.9-0.1c-1.7-3.1-4.2-4.7-7.4-4.7C236.3,114.5,234.7,114.9,233.3,115.4
		 M247.9,101.6c-4.4,0-6.9,3.5-8.2,6.2c6.5-0.7,9.8-3.7,11.3-5.7C249.9,101.7,248.9,101.6,247.9,101.6 M248.3,90.7
		c-1.7,0.1-2.9,0.7-3.9,1.7c-1,1.1-1.6,2.5-1.9,3.8C245.9,94.5,247.5,92.3,248.3,90.7 M262,87.3c-1.7,0.1-2.9,0.7-3.9,1.7
		c-1,1.1-1.6,2.5-1.9,3.8C259.6,91.1,261.2,88.9,262,87.3 M253,87.6c0.1,0.2,0.2,0.5,0.2,0.7c0.2-0.4,0.4-0.7,0.6-1.1
		C253.6,87.4,253.3,87.5,253,87.6C253,87.6,253,87.6,253,87.6 M191.4,80.6l-0.3,1.8c0,0.1,0,0.2-0.1,0.3c0.3-0.4,0.5-0.7,0.7-1
		L191.4,80.6z M259.9,76.3c-1.6,0.2-2.8,0.8-3.7,1.8c-1,1.2-1.5,2.7-1.7,4.1C257.8,80.2,259.3,77.9,259.9,76.3 M210.6,72.8
		c-0.2,1.8,0,4.5,2,7.7c0.5-1.4,0.8-3,0.4-4.6C212.5,74.7,211.8,73.7,210.6,72.8 M253.3,72.6c-1.7,0.1-2.9,0.7-3.9,1.7
		c-1,1.1-1.6,2.5-1.9,3.8C251,76.4,252.6,74.2,253.3,72.6 M232.7,69.6c-0.2,1.8,0,4.5,2,7.7c0.5-1.4,0.8-3,0.3-4.6
		C234.7,71.6,233.9,70.5,232.7,69.6 M194.2,68.6c1.1,1.4,3.1,3.3,6.8,4.2C200,70.6,197.9,68.1,194.2,68.6 M216.4,66.2
		c1.1,1.4,3.1,3.3,6.8,4.2C222.2,68.2,220.1,65.7,216.4,66.2 M244.1,61.9c-1,1.1-1.5,2.3-1.6,3.6c-0.1,1.6,0.6,3.2,1.3,4.4
		C245,66.2,244.7,63.5,244.1,61.9 M201.1,56.1c-0.2,1.8,0,4.5,2,7.7c0.5-1.4,0.8-3,0.3-4.6C203,58.1,202.3,57,201.1,56.1 M237,56.6
		c-1.7,0.1-2.9,0.7-3.9,1.7c-1,1.1-1.6,2.5-1.8,3.8C234.7,60.5,236.3,58.2,237,56.6 M223.2,53.8c-0.2,1.8,0,4.5,2,7.7
		c0.5-1.3,0.8-3,0.4-4.6C225.2,55.7,224.4,54.7,223.2,53.8 M259.2,54.4c-1.7,0.1-2.9,0.7-3.9,1.7c-1,1.1-1.6,2.5-1.8,3.8
		C256.9,58.2,258.5,56,259.2,54.4 M186.8,49.8c-0.2,1.8,0,4.5,2,7.7c0.5-1.4,0.8-3,0.4-4.6C188.8,51.8,188,50.7,186.8,49.8
		 M249.9,43.6c-1,1.1-1.5,2.3-1.6,3.6c-0.1,1.6,0.6,3.2,1.3,4.4C250.9,48,250.5,45.3,249.9,43.6 M236.2,44.6
		c-1.6,0.2-2.8,0.8-3.7,1.8c-1,1.2-1.5,2.7-1.7,4.1C234.1,48.6,235.5,46.3,236.2,44.6 M201.3,42.2c-1.6,0.2-2.8,0.8-3.7,1.9
		c-1,1.2-1.5,2.7-1.7,4C199.2,46.2,200.7,43.9,201.3,42.2 M148.8,128.8L148.8,128.8c-1.5,0-2.4-0.2-2.6-0.3
		c-1.1-0.3-1.8-1.3-1.6-2.4c0.8-5.3,3.1-8.4,5.7-10.2c-0.3,0-0.7,0-1,0c-10.6,0-14.9-6.6-15.1-6.9c-0.5-0.8-0.4-1.9,0.2-2.6
		c-9.3-2.2-11.2-9.1-11.3-9.4c-0.3-1.1,0.3-2.2,1.4-2.6c3.1-1.1,6-1.2,8.2-0.4c-3.7-7.2-0.8-12.6-0.6-12.8c0.5-1,1.7-1.4,2.8-0.9
		c1.7,0.8,3.1,1.7,4.2,2.7c0.2-0.6,0.7-1,1.3-1.3c3.1-1.1,6-1.2,8.2-0.4c-1-2-1.6-3.9-1.8-5.6c-0.1,0.5-0.2,0.9-0.6,1.3
		c-0.5,0.5-1.1,0.7-1.8,0.7c-12.5-1.1-14.9-9.6-15-10c-0.3-1.1,0.3-2.2,1.4-2.6c3.1-1.1,6-1.2,8.2-0.4c-3.7-7.2-0.8-12.6-0.6-12.8
		c0.5-1,1.7-1.4,2.8-0.9c3.7,1.7,6.1,4.1,6.9,7.2c1.5,5.5-2.2,10.8-2.4,11.1c-0.2,0.3-0.5,0.5-0.8,0.7c1,1.7,1.5,3.4,1.8,4.8
		c-0.2-3.7,1.1-6.1,1.2-6.3c0.5-1,1.7-1.4,2.8-0.9c1.3,0.6,2.5,1.3,3.5,2.1c-1.9-2.2-2.4-4.2-2.5-4.3c-0.3-1.1,0.3-2.2,1.4-2.6
		c3.2-1.2,6.2-1.2,8.5-0.3c-7.5-9.1-3.5-16.6-3.4-16.9c0.5-1,1.7-1.4,2.8-0.9c3.7,1.7,6.1,4.1,6.9,7.2c1.5,5.5-2.2,10.8-2.4,11.1
		c-0.4,0.5-0.9,0.8-1.5,0.9c3.1,2.4,4.6,6.5,5,9c0.1,0.7-0.1,1.3-0.6,1.8c-0.5,0.5-1.1,0.7-1.8,0.7c-5.2-0.5-8.6-2.2-10.9-4.1
		c0.9,1.1,1.5,2.3,1.9,3.6c1.5,5.5-2.2,10.8-2.4,11.1c-0.2,0.3-0.5,0.5-0.8,0.7c0.4,0.8,0.8,1.6,1.1,2.3c0.3-2.2,1-3.6,1.1-3.7
		c0.5-1,1.7-1.4,2.8-0.9c3.7,1.7,6.1,4.1,6.9,7.2c1.5,5.5-2.2,10.8-2.4,11.1c-0.2,0.3-0.5,0.5-0.8,0.7c1,1.9,1.6,3.8,1.8,5.3
		c0.1,0.7-0.1,1.3-0.6,1.8c-0.5,0.5-1.1,0.7-1.8,0.7c-3.1-0.3-5.5-1-7.5-1.9c1.2,1.6,1.9,3,2,3.1c0.2,0.5,0.3,1.1,0.1,1.6
		c0.3,0,0.6,0,0.8,0c3.6,0,6.6,1.1,6.8,1.1c0.6,0.2,1.1,0.7,1.3,1.4c0.2,0.6,0.1,1.3-0.3,1.9C159.8,127.4,152.6,128.8,148.8,128.8
		 M158.2,118.1c-4.6,0-7.4,2.1-8.7,6.3c2.6-0.1,6.9-1.3,11-6.2C159.8,118.1,159,118.1,158.2,118.1 M139.4,108.3
		c1.7,1.4,4.8,3.3,9.9,3.3c0.8,0,1.5,0,2.3-0.1c-1.6-2-4.2-4.5-7.7-4.5C142.6,106.9,141,107.4,139.4,108.3 M153,101.8
		c1.1,1.4,3.1,3.3,6.8,4.2C158.8,103.8,156.8,101.3,153,101.8 M144,102.6c1.9,0,3.6,0.5,5.1,1.2c-1-1.5-1.3-2.7-1.4-2.9
		c-0.3-1.1,0.3-2.2,1.4-2.6c3.1-1.1,6-1.2,8.2-0.4c-0.8-1.5-1.3-3-1.5-4.3c-0.5,0.5-1.1,0.7-1.8,0.7c-6-0.5-9.7-2.8-11.9-5
		c0.4,4.8-2.6,9-2.7,9.2c-0.2,0.3-0.5,0.5-0.8,0.7c0.8,1.4,1.3,2.8,1.6,4C141.5,102.8,142.8,102.6,144,102.6 M128.5,97.9
		c1.1,1.4,3.1,3.3,6.8,4.2C134.3,99.9,132.2,97.4,128.5,97.9 M159.9,89.4c-0.2,1.8,0,4.5,2,7.7c0.5-1.3,0.8-3,0.3-4.6
		C161.9,91.4,161.1,90.3,159.9,89.4 M135.3,85.4c-0.2,1.8,0,4.5,2,7.7c0.5-1.3,0.8-3,0.4-4.6C137.3,87.4,136.5,86.3,135.3,85.4
		 M144.3,85.2c1.1,1.4,3.1,3.3,6.8,4.2C150.1,87.2,148.1,84.7,144.3,85.2 M151.2,72.8c-0.2,1.8,0,4.5,2,7.7c0.5-1.4,0.8-3,0.3-4.6
		C153.2,74.7,152.4,73.7,151.2,72.8 M134.8,68.6c1.1,1.4,3.1,3.3,6.8,4.2C140.6,70.6,138.6,68.1,134.8,68.6 M157,66.2
		c1.1,1.4,3.1,3.3,6.8,4.2C162.8,68.2,160.7,65.7,157,66.2 M141.7,56.1c-0.2,1.8,0,4.5,2,7.7c0.5-1.3,0.8-3,0.3-4.6
		C143.7,58.1,142.9,57,141.7,56.1 M161.5,49.8c-0.2,1.8,0,4.5,2,7.7c0.5-1.4,0.8-3,0.3-4.6C163.5,51.8,162.7,50.7,161.5,49.8
		 M176.4,91.1c-0.1,0-0.1,0-0.2,0c-12.5-1.1-14.9-9.6-15-10c-0.3-1.1,0.3-2.2,1.4-2.6c3.1-1.1,6-1.2,8.2-0.4
		c-3.7-7.2-0.8-12.6-0.6-12.8c0.5-1,1.8-1.4,2.8-0.9c0.9,0.4,1.7,0.9,2.5,1.4c-1.8-4.9-0.6-8.6,0-10.1c-7.9-9.3-3.8-17-3.7-17.3
		c0.5-1,1.7-1.4,2.8-0.9c3.7,1.7,6.1,4.1,6.9,7.2c1.1,4.1-0.7,8.1-1.7,10c3,1.6,4.9,3.9,5.7,6.6c1.5,5.5-2.2,10.8-2.4,11.1
		c-0.4,0.5-1,0.9-1.7,0.9c-0.4,0-0.8-0.1-1.2-0.3c0.6,4.9-2.5,9.5-2.7,9.7c-0.2,0.3-0.5,0.5-0.8,0.7c1.1,1.9,1.6,3.8,1.8,5.3
		c0.1,0.7-0.1,1.3-0.6,1.8C177.6,90.9,177,91.1,176.4,91.1 M166.5,82c1.1,1.4,3.1,3.3,6.8,4.2C172.3,84,170.2,81.6,166.5,82
		 M173.4,69.6c-0.2,1.8,0,4.5,2,7.7c0.5-1.4,0.8-3,0.3-4.6C175.3,71.6,174.6,70.5,173.4,69.6 M178.9,59.3c-0.2,1.8,0,4.5,2,7.7
		c0.5-1.4,0.8-3,0.4-4.6C180.9,61.3,180.1,60.2,178.9,59.3 M174.9,42.7c-0.2,1.8,0,4.5,2,7.7c0.5-1.4,0.8-3,0.4-4.6
		C176.9,44.6,176.1,43.6,174.9,42.7 M212.9,62.2c-0.6,0-1.2-0.3-1.6-0.7c-8.3-9.4-4.1-17.2-3.9-17.5c0.5-1,1.7-1.4,2.8-0.9
		c1.5,0.7,2.8,1.5,3.8,2.4c0.1-2,0.6-6,3.3-8.9c2.4-2.5,5.8-3.6,10.2-3c1.1,0.2,1.9,1.1,1.9,2.3c0,0.4-0.6,9.2-12.6,12.9
		c-0.1,0-0.2,0-0.3,0.1c0.2,0.5,0.4,1,0.6,1.5c1.5,5.5-2.2,10.8-2.4,11.1c-0.4,0.5-1,0.9-1.7,0.9C213,62.2,212.9,62.2,212.9,62.2
		 M210.6,48.2c-0.2,1.8,0,4.5,2,7.7c0.5-1.4,0.8-3,0.4-4.6C212.5,50.2,211.8,49.1,210.6,48.2 M224.4,37.7c-1.7,0.1-2.9,0.7-3.9,1.7
		c-1,1.1-1.6,2.5-1.9,3.8C222,41.6,223.6,39.3,224.4,37.7"/>
	<path class="st4" d="M209.3,45c0,0-3.7,6.7,3.6,15.1C212.9,60.1,220.1,49.8,209.3,45"/>
	<path class="st1" d="M213.2,64.8c0,0,1.9,7.4,13.1,8.4C226.3,73.1,224.4,60.7,213.2,64.8"/>
	<path class="st5" d="M221.9,50.5c0,0-3.7,6.7,3.6,15.1C225.6,65.6,232.8,55.4,221.9,50.5"/>
	<path class="st1" d="M227.2,35.7c-11.8-1.6-11,10.9-11,10.9C226.8,43.3,227.2,35.7,227.2,35.7"/>
	<path class="st1" d="M209.3,69.5c0,0-3.7,6.7,3.6,15.1C212.9,84.6,220.1,74.4,209.3,69.5"/>
	<path class="st6" d="M181.2,71.1c0,0,7.2-10.2-3.6-15.1C177.6,56.1,173.9,62.8,181.2,71.1"/>
	<path class="st6" d="M204,40c-11.9-0.9-10.3,11.6-10.3,11.6C204.1,47.6,204,40,204,40"/>
	<path class="st6" d="M191.1,67.1c0,0,1.9,7.4,13,8.4C204.1,75.5,202.3,63.1,191.1,67.1"/>
	<path class="st5" d="M199.8,52.9c0,0-3.7,6.7,3.6,15.1C203.4,68,210.6,57.8,199.8,52.9"/>
	<path class="st5" d="M185.5,46.6c0,0-3.7,6.7,3.6,15.1C189.1,61.6,196.4,51.4,185.5,46.6"/>
	<path class="st5" d="M251,63.2c10.7-3.2,11-10.9,11-10.9C250.2,50.7,251,63.2,251,63.2"/>
	<path class="st1" d="M245.1,81.4c10.7-3.3,11-10.9,11-10.9C244.4,68.9,245.1,81.4,245.1,81.4"/>
	<path class="st1" d="M262.6,74c-11.9-0.9-10.3,11.6-10.3,11.6C262.7,81.7,262.6,74,262.6,74"/>
	<path class="st6" d="M250.1,55.7c5.4-9.7,0.4-15.5,0.4-15.5C240.9,47.2,250.1,55.7,250.1,55.7"/>
	<path class="st5" d="M251.1,88.6c-11.8-1.6-11,10.9-11,10.9C250.7,96.3,251.1,88.6,251.1,88.6"/>
	<path class="st5" d="M228.8,65.5c10.7-3.2,11-10.9,11-10.9C228,53,228.8,65.5,228.8,65.5"/>
	<path class="st6" d="M231.4,66.4c0,0-3.7,6.7,3.6,15.1C235.1,81.4,242.3,71.2,231.4,66.4"/>
	<path class="st1" d="M244.3,73.9c5.4-9.7,0.4-15.5,0.4-15.5C235,65.4,244.3,73.9,244.3,73.9"/>
	<path class="st5" d="M238.8,42.4c-11.9-0.9-10.3,11.6-10.3,11.6C239,50,238.8,42.4,238.8,42.4"/>
	<path class="st4" d="M155.3,113.1c0,0-7-14.4-19.1-5.2C136.1,107.9,141.3,116.1,155.3,113.1"/>
	<path class="st1" d="M137.7,97.3c0,0,7.2-10.2-3.6-15.1C134,82.2,130.3,88.9,137.7,97.3"/>
	<path class="st6" d="M164.2,116.9c0,0-15-5.5-17.4,9.5C146.7,126.4,156.2,128.8,164.2,116.9"/>
	<path class="st6" d="M125.3,96.4c0,0,1.9,7.4,13,8.4C138.4,104.8,136.5,92.4,125.3,96.4"/>
	<path class="st5" d="M173.6,39.4c0,0-3.7,6.7,3.6,15.1C177.3,54.5,184.5,44.3,173.6,39.4"/>
	<path class="st6" d="M229.4,114.8c10.2,10,19,5.7,19,5.7C243,106.3,229.4,114.8,229.4,114.8"/>
	<path class="st1" d="M234.8,97.1l-9.8,5.3l-3,6.8l-4.5,1.5l-0.8-4.5l6.8-15.8l-5.3-6v6.8l-7.5,10.5l0.8,10.5c0,0-5.3,11.3-12,15
		c0,0-10.5-33.8-10.5-36c0-2.3,5.3-9,5.3-9l-3.8-10.5L189,82.1l-6,10.5l3,16.5l3.8,6v6.8c0,0-7.5-3.8-11.3-3.8l-3.7-6l-7.5-4.5
		c0,0,6,6,3,12.8c0,0,0.8,3.8,6.8,4.5c6,0.8,11.3,5.3,11.3,5.3s-5.3,1.5-0.7,4.5c0,0,0.8,82.2-8.1,99.1H211
		c-2.7-10.6-15.2-84.3-3.1-99.8c0,0,10.5-18.8,16.5-21c6-2.3,6-10.5,6-10.5L234.8,97.1z"/>
	<path class="st5" d="M253.7,96.1c10.7-3.2,11-10.9,11-10.9C253,83.6,253.7,96.1,253.7,96.1"/>
	<path class="st6" d="M236.5,110c14.3,0.1,17.7-9.1,17.7-9.1C240.4,94.5,236.5,110,236.5,110"/>
	<path class="st1" d="M140.4,52.9c0,0-3.7,6.7,3.6,15.1C144,68,151.2,57.8,140.4,52.9"/>
	<path class="st6" d="M144.7,75.5c0,0-1.9-12.4-13.1-8.4C131.7,67.1,133.6,74.5,144.7,75.5"/>
	<path class="st1" d="M141.2,83.8c0,0,1.9,7.4,13,8.4C154.2,92.1,152.4,79.7,141.2,83.8"/>
	<path class="st6" d="M149.9,69.5c0,0-3.7,6.7,3.6,15.1C153.5,84.6,160.7,74.4,149.9,69.5"/>
	<path class="st5" d="M176.4,89c0,0-1.9-12.4-13-8.4C163.3,80.6,165.3,88,176.4,89"/>
	<path class="st5" d="M172.1,66.4c0,0-3.7,6.7,3.6,15.1C175.7,81.4,182.9,71.2,172.1,66.4"/>
	<path class="st1" d="M162.9,108.8c0,0-1.9-12.4-13-8.4C149.9,100.4,151.8,107.8,162.9,108.8"/>
	<path class="st1" d="M166.9,73.1c0,0-1.8-12.4-13-8.4C153.8,64.8,155.8,72.2,166.9,73.1"/>
	<path class="st1" d="M158.6,86.2c0,0-3.7,6.7,3.6,15.1C162.2,101.2,169.5,91,158.6,86.2"/>
	<path class="st1" d="M160.2,46.6c0,0-3.7,6.7,3.6,15.1C163.8,61.6,171,51.4,160.2,46.6"/>
	<polygon class="st1" points="4.5,244.4 13.4,244.4 31.5,271.9 31.5,244.4 41,244.4 41,291.5 32.7,291.5 14,263.1 14,291.5 
		4.5,291.5 	"/>
	<polygon class="st1" points="50.4,244.4 60.2,244.4 60.2,264.8 75.6,244.4 87.1,244.4 71.3,264.4 87.7,291.5 76.3,291.5 
		64.5,272.2 60.2,277.7 60.2,291.5 50.4,291.5 	"/>
	<path class="st1" d="M87.9,268.3v-0.6c0-14.3,8.9-23.9,21.3-23.9c7,0,11.5,2.6,15.1,6.3l-5.9,7.5c-2.8-2.9-5.8-4.7-9.6-4.7
		c-6.3,0-11,5.9-11,15v0.2c0,9.3,4.8,15.1,11.1,15.1c3.8,0,6.5-1.8,9.7-4.9l5.8,6.9c-4.2,4.4-8.7,7.1-15.9,7.1
		C96.3,292.2,87.9,282.7,87.9,268.3"/>
	<path class="st1" d="M131.3,244.4h15.2c13.7,0,22.5,9.4,22.5,23.2v0.6c0,13.8-8.8,23.3-22.5,23.3h-15.2V244.4z M141,253.3v29.5h5.4
		c7.4,0,12.4-5.2,12.4-14.5v-0.3c0-9.3-5-14.6-12.4-14.6H141z"/>
	<path class="st1" d="M174.9,268.3v-0.6c0-14.3,8.9-23.9,21.3-23.9c7,0,11.5,2.6,15.1,6.3l-5.9,7.5c-2.8-2.9-5.8-4.7-9.6-4.7
		c-6.3,0-11,5.9-11,15v0.2c0,9.3,4.8,15.1,11.1,15.1c3.8,0,6.5-1.8,9.7-4.9l5.8,6.9c-4.2,4.4-8.7,7.1-15.9,7.1
		C183.2,292.2,174.9,282.7,174.9,268.3"/>
</g>
</svg>
